<svg width="71" height="33" viewBox="0 0 71 33" fill="none" xmlns="http://www.w3.org/2000/svg">
<path d="M8 8L5.5 10.5L5 23.5L6.5 26.5L9 27H27L31.5 26.5L32.5 24V10.5L30 8.5L8 8Z" fill="#ED2C37"/>
<path d="M35.5079 32.0624C25.9269 32.0624 16.3459 32.0624 6.7649 32.0624C2.59583 32.0624 0 29.4666 0 25.3133C0 20.216 0 15.103 0 10.0057C0.0157323 5.93102 2.64303 3.31946 6.68624 3.31946C25.8954 3.31946 45.1046 3.31946 64.3138 3.31946C68.3727 3.31946 70.9843 5.93103 71 9.98997C71 15.1502 71 20.3104 71 25.4548C71 29.4037 68.357 32.0467 64.4081 32.0467C54.78 32.0624 45.1361 32.0624 35.5079 32.0624ZM35.5236 30.1745C45.1518 30.1745 54.78 30.1745 64.4239 30.1745C67.3186 30.1745 69.1121 28.3653 69.1121 25.4548C69.1121 20.2789 69.1121 15.0872 69.1121 9.9113C69.1121 7.01656 67.3029 5.20734 64.4239 5.19161C45.1675 5.20734 25.8954 5.20734 6.63904 5.20734C3.6971 5.20734 1.90361 7.00082 1.90361 9.9585C1.90361 15.0558 1.90361 20.1688 1.90361 25.2661C1.90361 28.4283 3.63417 30.1745 6.79637 30.1745C16.3774 30.1745 25.9426 30.1745 35.5236 30.1745Z" fill="black"/>
<path d="M21.5376 0.0157323C24.1334 0.0157323 26.7135 0.0157323 29.3093 0.0157323C29.86 0.0157323 30.3005 0.173056 30.4578 0.739419C30.6308 1.36871 30.1431 1.88788 29.3565 1.88788C27.626 1.90361 25.9112 1.88788 24.1806 1.88788C20.7509 1.88788 17.3213 1.88788 13.8917 1.88788C13.2309 1.88788 12.7432 1.71482 12.6331 1.00687C12.5544 0.409041 13.0578 0.0157323 13.8445 0C16.4088 0.0157323 18.9732 0.0157323 21.5376 0.0157323Z" fill="black"/>
<path d="M10.2733 1.90363C9.3766 1.90363 8.93609 1.58898 8.95182 0.943954C8.96756 0.314661 9.3766 0.0157471 10.2261 0.0157471C11.1072 0.0157471 11.5634 0.346126 11.5634 0.975419C11.5477 1.58898 11.1072 1.90363 10.2733 1.90363Z" fill="black"/>
<path d="M18.8946 27.8146C15.4335 27.8146 11.9881 27.8146 8.527 27.8146C5.93116 27.8146 4.2478 26.147 4.2478 23.5512C4.2478 19.6181 4.2478 15.7008 4.2478 11.7677C4.26354 9.23476 5.94689 7.56714 8.49553 7.56714C15.4492 7.56714 22.4186 7.56714 29.3723 7.56714C31.921 7.56714 33.6043 9.2505 33.6201 11.7834C33.6358 15.7322 33.6358 19.681 33.6201 23.6456C33.6201 26.1313 31.921 27.8146 29.4195 27.8304C25.9112 27.8304 22.4029 27.8146 18.8946 27.8146ZM31.685 21.978C31.685 20.9239 31.685 19.917 31.685 18.9259C29.215 18.9259 26.7922 18.9259 24.3852 18.9259C24.2751 20.0743 24.0548 20.2789 22.9693 20.2946C20.2948 20.2946 17.636 20.2946 14.9615 20.2946C13.6557 20.2946 13.5141 20.1845 13.2624 18.9416C10.9026 18.9416 8.527 18.9416 6.16715 18.9416C6.16715 19.9799 6.16715 20.9711 6.16715 21.9937C14.6783 21.978 23.1581 21.978 31.685 21.978ZM31.7007 11.925C31.7636 10.4462 30.8826 9.45502 29.4667 9.45502C22.4029 9.43929 15.3391 9.43929 8.27528 9.45502C6.90657 9.45502 6.05702 10.5091 6.23008 11.925C14.7098 11.925 23.2053 11.925 31.7007 11.925ZM31.7007 13.8915C23.1581 13.8915 14.6783 13.8915 6.19861 13.8915C6.19861 14.9456 6.19861 15.9525 6.19861 16.9436C8.60566 16.9436 10.9498 16.9436 13.2939 16.9436C13.5141 15.1029 13.5141 15.1029 15.3706 15.1029C17.7461 15.1029 20.1375 15.1029 22.513 15.1029C24.1964 15.1029 24.2593 15.1659 24.3852 16.8335C24.3852 16.8807 24.4481 16.9121 24.4796 16.9436C26.8709 16.9436 29.2779 16.9436 31.7007 16.9436C31.7007 15.921 31.7007 14.9456 31.7007 13.8915ZM31.6221 23.9288C23.0951 23.9288 14.6311 23.9288 6.16715 23.9288C6.18288 25.1873 7.01669 25.9268 8.38541 25.9268C12.9163 25.9425 17.4315 25.9268 21.9624 25.9268C24.4481 25.9268 26.9338 25.9425 29.4195 25.9268C30.741 25.9268 31.4962 25.2503 31.6221 23.9288ZM15.2762 18.3438C17.7147 18.3438 20.0745 18.3438 22.4344 18.3438C22.4344 17.8718 22.4344 17.4628 22.4344 17.0223C20.0431 17.0223 17.6675 17.0223 15.2762 17.0223C15.2762 17.4785 15.2762 17.8875 15.2762 18.3438Z" fill="black"/>
<path d="M52.0269 27.8148C48.5658 27.8148 45.1204 27.8148 41.6593 27.8148C39.0635 27.8148 37.3801 26.1314 37.3801 23.5513C37.3801 19.6182 37.3801 15.7009 37.3801 11.7678C37.3801 9.23487 39.0792 7.55151 41.6279 7.55151C48.5815 7.55151 55.551 7.55151 62.5047 7.55151C65.0533 7.55151 66.7367 9.23487 66.7367 11.7835C66.7524 15.7323 66.7524 19.6811 66.7367 23.6457C66.7367 26.1314 65.0376 27.8148 62.5361 27.8148C59.0435 27.8305 55.5352 27.8148 52.0269 27.8148ZM57.7063 18.8945C57.5332 20.0902 57.3287 20.279 56.1488 20.279C53.553 20.279 50.9729 20.2947 48.377 20.2632C47.9208 20.2632 47.3859 20.2632 47.0398 20.0272C46.7409 19.8227 46.6779 19.2878 46.5049 18.9103C44.145 18.9103 41.738 18.9103 39.3152 18.9103C39.3152 19.9486 39.3152 20.9555 39.3152 21.9623C47.8421 21.9623 56.3376 21.9623 64.8016 21.9623C64.8016 20.9083 64.8016 19.9014 64.8016 18.9103C62.4103 18.8945 60.0504 18.8945 57.7063 18.8945ZM64.8488 11.9251C64.8802 10.2889 64.0779 9.43939 62.5204 9.43939C55.5824 9.43939 48.6445 9.43939 41.7223 9.43939C41.5335 9.43939 41.3604 9.43939 41.1716 9.47086C39.9445 9.65965 39.1579 10.7294 39.3781 11.9251C47.8579 11.9251 56.3219 11.9251 64.8488 11.9251ZM39.2995 16.9122C41.738 16.9122 44.1765 16.9122 46.6622 16.9122C46.6622 16.6605 46.6465 16.4245 46.6622 16.2043C46.7094 15.4649 47.0555 15.103 47.7949 15.103C50.7054 15.0873 53.6002 15.0873 56.5106 15.103C57.2343 15.103 57.6119 15.4963 57.6434 16.22C57.6591 16.456 57.6434 16.6763 57.6434 16.9437C60.0819 16.9437 62.4417 16.9437 64.8173 16.9437C64.8173 15.8896 64.8173 14.8985 64.8173 13.9074C56.2747 13.9074 47.7949 13.9074 39.2837 13.9074C39.2995 14.93 39.2995 15.8896 39.2995 16.9122ZM39.4096 23.9289C39.4725 25.0616 40.1805 25.9111 41.2503 25.9111C48.5029 25.9426 55.7398 25.9426 62.9924 25.9111C64.1251 25.9111 64.896 24.9829 64.8173 23.9289C56.3533 23.9289 47.8736 23.9289 39.4096 23.9289ZM55.7083 18.3596C55.7083 17.8877 55.7083 17.4629 55.7083 17.0381C53.2855 17.0381 50.9257 17.0381 48.5815 17.0381C48.5815 17.5101 48.5815 17.9191 48.5815 18.3596C50.9571 18.3596 53.3012 18.3596 55.7083 18.3596Z" fill="black"/>
</svg>
