<svg width="84" height="37" viewBox="0 0 84 37" fill="none" xmlns="http://www.w3.org/2000/svg">
<path d="M48.5 7.5H24L17 15V21L21 22L24.5 23.5L29 27.5L32 29.5H54L58 24.5V15.5L48.5 7.5Z" fill="#ED2C37"/>
<path d="M0 14.5958C0.0493102 14.4972 0.115057 14.415 0.147931 14.3164C0.805401 12.3111 2.25183 11.2263 4.37218 11.1934C6.14734 11.177 7.92251 11.177 9.69768 11.2099C10.3223 11.2263 10.7496 11.0291 11.1606 10.5524C13.4617 7.8732 15.7957 5.24332 18.1133 2.58057C19.6255 0.838274 21.5157 0 23.8168 0C32.101 0 40.3851 0.0164367 48.6692 0C50.7074 0 52.4497 0.673907 53.9618 2.03816C57.7094 5.44056 61.4734 8.82653 65.2374 12.1796C65.5826 12.4755 66.0757 12.7056 66.5195 12.7714C70.826 13.4946 75.1488 14.152 79.4552 14.9081C82.1016 15.3684 83.9589 17.6038 83.9753 20.2829C84.0082 24.2442 84.0082 28.2055 83.9753 32.1832C83.9589 34.5665 82.1509 36.3581 79.7675 36.4074C78.8635 36.4238 77.9595 36.4238 77.0555 36.4074C75.4611 36.391 74.442 35.5527 74.1297 33.9748C73.5051 30.8846 71.73 28.8794 68.6234 28.1562C64.9416 27.3014 61.1611 29.7505 60.3722 33.4652C59.8791 35.7499 59.0901 36.4074 56.7725 36.4074C46.8776 36.4074 36.9827 36.4074 27.0878 36.4074C24.951 36.4074 24.0798 35.6842 23.6525 33.5803C22.9786 30.3258 20.1843 28.0411 16.8641 28.0082C13.5274 27.9918 10.7168 30.2107 9.99354 33.4652C9.46757 35.7828 8.69504 36.4074 6.31171 36.4074C5.70355 36.4074 5.11183 36.4074 4.50367 36.4074C2.28471 36.391 0.854711 35.3554 0.147931 33.268C0.115057 33.1694 0.0493102 33.0707 0 32.9721C0 26.8412 0 20.7267 0 14.5958ZM57.4957 33.6132C58.0217 30.7532 59.3531 28.5342 61.6542 26.9563C67.4564 22.995 75.231 26.118 76.7596 33.0214C76.8582 33.4981 77.039 33.6625 77.5157 33.6296C78.1403 33.5967 78.7649 33.6132 79.4059 33.6132C80.7044 33.5967 81.1975 33.12 81.1975 31.8215C81.1975 28.1068 81.1975 24.3921 81.1975 20.661C81.1975 18.9023 80.2935 17.8503 78.5512 17.5709C74.3105 16.897 70.0863 16.2066 65.8456 15.5492C64.9909 15.4177 64.2677 15.1382 63.5938 14.5136C59.7805 11.0291 55.9178 7.59378 52.0881 4.12562C51.0854 3.2216 49.9513 2.77781 48.587 2.77781C40.3522 2.79425 32.1338 2.79425 23.899 2.77781C22.3375 2.77781 21.1048 3.33666 20.1021 4.52011C17.6202 7.39654 15.0889 10.2237 12.607 13.1165C12.0481 13.7576 11.4564 14.0205 10.6181 14.0041C8.56355 13.9712 6.52539 13.9877 4.4708 14.0041C3.38597 14.0041 2.79425 14.4972 2.79425 15.467C2.77781 21.0226 2.77781 26.5618 2.79425 32.1174C2.79425 33.005 3.33666 33.5638 4.22424 33.5967C5.1447 33.6296 6.0816 33.6132 7.03493 33.6132C7.10068 33.3995 7.16642 33.2351 7.21573 33.0379C8.1855 28.4684 12.0317 25.2797 16.6669 25.214C21.3185 25.1482 25.329 28.2712 26.3481 32.8406C26.496 33.5145 26.7755 33.6132 27.3672 33.6132C37.1306 33.5967 46.894 33.5967 56.641 33.5967C56.904 33.6131 57.167 33.6132 57.4957 33.6132Z" fill="black"/>
<path d="M36.3089 5.60494C40.188 5.60494 44.067 5.62137 47.9461 5.5885C49.0145 5.5885 49.9021 5.91724 50.7075 6.62402C53.4196 8.99091 56.1645 11.3414 58.9259 13.6754C59.8134 14.415 60.2408 15.3026 60.2244 16.4532C60.1915 18.59 60.2079 20.7103 60.2244 22.8471C60.2408 23.899 59.797 24.688 59.0738 25.4441C58.0054 26.5947 57.0028 27.8274 56.1152 29.1259C55.3755 30.2272 54.4879 30.8353 53.1566 30.8353C45.7272 30.8189 38.2813 30.8189 30.8519 30.8353C29.5205 30.8353 28.5672 30.2765 27.9262 29.1095C25.7565 25.1975 22.4363 22.995 17.9984 22.469C16.4533 22.2882 15.4507 21.1541 15.4342 19.5762C15.4178 18.179 15.352 16.7819 15.4671 15.4012C15.5164 14.7109 15.7794 13.9219 16.2068 13.396C18.097 11.0948 20.0858 8.87585 22.0418 6.62402C22.6993 5.86793 23.5375 5.5885 24.5238 5.5885C28.4357 5.60494 32.3641 5.60494 36.3089 5.60494ZM39.2182 27.9425C39.399 27.9754 39.4976 27.9918 39.6127 27.9918C44.067 28.0082 48.5214 28.0247 52.9758 27.9918C53.2388 27.9918 53.5675 27.7124 53.7647 27.4658C54.8331 26.1673 55.8851 24.8524 56.9206 23.521C57.1343 23.2416 57.3479 22.88 57.3644 22.5512C57.4137 20.5788 57.4137 18.6064 57.3808 16.6504C57.3808 16.3217 57.1836 15.9108 56.937 15.6971C54.2578 13.3631 51.5622 11.0455 48.8501 8.74436C48.62 8.54712 48.2749 8.41562 47.979 8.41562C45.1847 8.39918 42.4069 8.39918 39.6127 8.39918C39.4812 8.39918 39.3661 8.44849 39.2182 8.48137C39.2182 14.9739 39.2182 21.4171 39.2182 27.9425ZM18.212 19.6419C18.5901 19.7077 18.9024 19.7734 19.2147 19.8227C23.4718 20.5131 26.9728 22.5512 29.3068 26.1509C30.3095 27.6959 31.3614 28.189 33.038 28.0082C34.1392 27.8932 35.2569 27.9918 36.3582 27.9918C36.3582 21.4171 36.3582 14.9574 36.3582 8.48137C36.2267 8.44849 36.161 8.41562 36.0788 8.41562C32.249 8.41562 28.4357 8.39918 24.6059 8.43206C24.3429 8.43206 23.9978 8.64574 23.8005 8.85941C22.0418 10.8483 20.3159 12.8535 18.5901 14.8588C18.4257 15.0561 18.2285 15.3191 18.2285 15.5492C18.1956 16.897 18.212 18.2448 18.212 19.6419Z" fill="black"/>
</svg>
