<svg width="79" height="13" viewBox="0 0 79 13" fill="none" xmlns="http://www.w3.org/2000/svg">
<path d="M6.36327 0L8.23338 3.78927L12.4151 4.39691L9.38918 7.34644L10.1035 11.5113L6.36327 9.5449L2.62303 11.5113L3.33735 7.34644L0.31144 4.39691L4.49315 3.78927L6.36327 0Z" fill="#FFC804"/>
<path d="M22.72 0L24.5901 3.78927L28.7718 4.39691L25.7459 7.34644L26.4602 11.5113L22.72 9.5449L18.9797 11.5113L19.694 7.34644L16.6681 4.39691L20.8498 3.78927L22.72 0Z" fill="#FFC804"/>
<path d="M39.0766 0L40.9468 3.78927L45.1285 4.39691L42.1026 7.34644L42.8169 11.5113L39.0766 9.5449L35.3364 11.5113L36.0507 7.34644L33.0248 4.39691L37.2065 3.78927L39.0766 0Z" fill="#FFC804"/>
<path d="M55.4331 0L57.3032 3.78927L61.4849 4.39691L58.459 7.34644L59.1733 11.5113L55.4331 9.5449L51.6929 11.5113L52.4072 7.34644L49.3813 4.39691L53.563 3.78927L55.4331 0Z" fill="#FFC804"/>
<path d="M71.7898 0L73.6599 3.78927L77.8416 4.39691L74.8157 7.34644L75.53 11.5113L71.7898 9.5449L68.0495 11.5113L68.7639 7.34644L65.738 4.39691L69.9197 3.78927L71.7898 0Z" fill="#CECECE"/>
</svg>
