<svg width="64" height="64" viewBox="0 0 64 64" fill="none" xmlns="http://www.w3.org/2000/svg">
<path d="M24.8201 22L15.3201 27V28.5L16.8201 31L24.8201 48L27.8201 49.5L36.8201 43.5L36.3201 38.5L51.8201 29.5L54.3201 26.5L48.8201 17L46.3201 15L27.8201 25L24.8201 22Z" fill="#ED2C37"/>
<path d="M3.04448 39.1173C3.6075 38.0274 4.57783 37.4012 5.61101 36.8126C8.6463 35.0923 11.6505 33.3324 14.7183 31.5686C14.5475 31.2726 14.3961 30.9818 14.2421 30.7007C12.9778 28.4956 13.5571 26.2945 15.7423 25.0241C17.8288 23.8107 19.9127 22.607 22.0064 21.4059C24.1396 20.1737 26.3665 20.7704 27.5978 22.9041C27.7712 23.1904 27.9077 23.498 28.1703 23.9959C28.369 23.7989 28.4918 23.6129 28.6618 23.5229C33.9544 20.4576 39.2443 17.4021 44.5466 14.3395C46.8524 13.0076 49.0112 13.586 50.3396 15.9021C50.4819 16.1488 50.5776 16.4142 50.7192 16.7024C50.973 16.5723 51.1307 16.4894 51.291 16.3969C52.9777 15.4308 54.6404 14.4375 56.344 13.4864C58.9645 12.0303 62.1023 13.7782 62.1575 16.7228C62.1828 18.2622 61.4841 19.4305 60.1621 20.2023C58.5169 21.169 56.8549 22.1208 55.2051 23.0655C55.0448 23.1581 54.88 23.2286 54.5329 23.3963C54.7763 23.7326 55.0185 23.9956 55.1893 24.2916C56.4206 26.4253 55.8237 28.653 53.7002 29.8878C48.383 32.9673 43.0561 36.0442 37.7318 39.1114C37.5591 39.2111 37.3723 39.2861 37.1185 39.4162C37.3658 39.8161 37.58 40.1446 37.7669 40.4971C38.8785 42.4944 38.2913 44.7247 36.3229 45.8864C34.1448 47.1691 31.9499 48.4369 29.7505 49.6826C27.7854 50.793 25.5489 50.1938 24.3996 48.2593C24.2003 47.914 24.038 47.5472 23.8368 47.1701C23.5954 47.2931 23.4501 47.3688 23.3144 47.4472C20.429 49.1138 17.5268 50.7655 14.6556 52.4569C13.6295 53.0578 12.6048 53.5756 11.3773 53.5282C10.9883 53.424 10.5993 53.3198 10.2104 53.2155C9.05551 52.6246 8.38174 51.5995 7.80091 50.4221C6.7208 51.1857 5.59369 51.697 4.28833 51.6287C3.92854 51.5323 3.57847 51.4385 3.21867 51.3421C3.12213 51.2745 3.03531 51.2096 2.93617 51.1517C1.84295 50.5251 1.16256 49.6026 0.954058 48.3581C0.894214 47.998 0.897927 47.634 0.869862 47.272C0.966307 46.9121 1.06014 46.5619 1.15659 46.2019C1.74307 45.0245 2.76342 44.3282 3.95029 43.7496C3.2286 42.6699 2.67814 41.5736 2.74402 40.2776C2.83595 39.8956 2.94022 39.5064 3.04448 39.1173ZM35.9294 37.2417C36.0359 37.1555 36.1352 37.057 36.2462 36.9929C41.6101 33.8947 46.974 30.7964 52.3379 27.6982C53.3121 27.1355 53.4815 26.5032 52.9192 25.5288C51.3035 22.7291 49.6878 19.9293 48.0721 17.1296C47.4859 16.128 46.883 15.9664 45.8718 16.5505C40.5352 19.6248 35.2057 22.7114 29.8664 25.7954C29.7184 25.8809 29.5802 25.9689 29.4666 26.0428C31.6116 29.7455 33.7469 33.4455 35.9294 37.2417ZM22.1636 39.2564C22.2276 39.3674 22.2962 39.5005 22.3647 39.6335C23.7313 42.0016 25.0908 44.3573 26.4574 46.7254C27.0339 47.7244 27.666 47.8938 28.6524 47.324C30.6844 46.1585 32.7093 44.9807 34.7439 43.8055C35.8166 43.1858 35.9757 42.5924 35.3635 41.5317C34.0138 39.1786 32.6517 36.8326 31.2994 34.4892C31.2211 34.3536 31.1234 34.2127 31.0567 34.1114C28.0947 35.8305 25.1476 37.5328 22.1636 39.2564ZM29.6856 31.7213C29.6526 31.6499 29.6009 31.5318 29.5368 31.4208C28.156 29.0281 26.7752 26.6353 25.3944 24.2426C24.8321 23.2683 24.2097 23.1015 23.2233 23.6713C21.1764 24.8536 19.1321 26.0262 17.0949 27.2111C16.0714 27.8023 15.9046 28.4249 16.5051 29.4512C17.8005 31.6959 19.1056 33.9432 20.3887 36.1951C20.531 36.4417 20.6143 36.7143 20.7088 36.9064C23.7668 35.1401 26.7139 33.4378 29.6856 31.7213ZM17.9207 47.5451C15.7712 43.8203 13.643 40.1326 11.5122 36.4545C10.8314 36.856 10.1136 37.2788 9.45749 37.666C11.5811 41.3317 13.7138 45.0415 15.8491 48.7416C16.515 48.357 17.2301 47.9439 17.9207 47.5451ZM20.204 46.1029C20.9412 45.6852 21.6564 45.2721 22.3073 44.9044C20.2005 41.2536 18.0626 37.5633 15.9487 33.9002C15.2829 34.2848 14.5651 34.7076 13.8622 35.1136C15.9859 38.7793 18.1114 42.4768 20.204 46.1029ZM13.4802 50.1922C11.3022 46.4181 9.1669 42.718 7.00055 38.9783C6.75132 39.1305 6.46772 39.2943 6.1815 39.4678C5.26641 40.0046 5.09437 40.6467 5.63792 41.5743C6.49203 43.0543 7.34614 44.5344 8.20025 46.0144C9.00454 47.4081 9.79911 48.7992 10.6157 50.1858C11.0596 50.9407 11.7332 51.1108 12.4996 50.701C12.8397 50.521 13.1894 50.3437 13.4802 50.1922ZM53.4217 21.0862C53.4931 21.0532 53.5989 21.0086 53.6949 20.9613C55.3842 19.9856 57.0833 19.0124 58.7752 18.0269C59.5397 17.5853 59.7943 16.8298 59.417 16.1761C59.0398 15.5225 58.2611 15.3555 57.4966 15.7971C56.4511 16.3928 55.4127 17.0008 54.3672 17.5965C53.615 18.031 52.8655 18.4557 52.1477 18.8785C52.5818 19.6309 52.9947 20.3462 53.4217 21.0862ZM5.1698 46.0052C4.8122 46.2118 4.47927 46.4041 4.15606 46.599C4.08208 46.6417 4.01782 46.6871 3.95095 46.7421C3.45822 47.1419 3.32438 47.8359 3.62783 48.3759C3.92416 48.9037 4.56906 49.1807 5.13939 48.9582C5.60655 48.7706 6.03884 48.4798 6.45287 48.2571C6.00446 47.4801 5.60137 46.7673 5.1698 46.0052Z" fill="black"/>
</svg>
