<svg width="38" height="54" viewBox="0 0 38 54" fill="none" xmlns="http://www.w3.org/2000/svg">
<path d="M35 15H27.5H27L26.5 32.5L27.5 34.5H34.5L35 33V15Z" fill="#ED2C37"/>
<path d="M4.5 14.5L2.5 15.5V23.5L4 25L4.5 28L9.5 28.5V26L11 24V17L10 15L4.5 14.5Z" fill="#ED2C37"/>
<path d="M10.3735 27.6211C12.8182 27.8483 13.8458 28.6595 13.8241 30.2929C13.8025 31.9046 12.71 32.7375 10.3735 32.8673C10.3735 33.1378 10.3735 33.419 10.3735 33.7002C10.3735 33.9707 10.3735 34.2303 10.3735 34.5764C10.698 34.5764 11.0009 34.5656 11.3038 34.5764C12.71 34.6197 13.8241 35.7555 13.835 37.1508C13.8458 38.5462 12.7316 39.6928 11.3254 39.7469C11.0226 39.7577 10.7197 39.7469 10.4384 39.7469C10.2978 40.331 10.406 40.6988 10.9144 41.045C13.6619 42.9596 14.603 46.5616 13.1859 49.5795C11.7797 52.5975 8.41567 54.1767 5.1814 53.3438C1.99039 52.5326 -0.216265 49.5038 0.0217077 46.2046C0.173145 44.0845 1.12504 42.343 2.86657 41.099C3.35333 40.7529 3.60212 40.4068 3.38578 39.7577C3.22353 39.7577 3.00719 39.7577 2.80167 39.7577C1.17912 39.7469 0.0108908 38.6652 7.38243e-05 37.1833C-0.0107431 35.6906 1.16831 34.5872 2.76922 34.5764C2.96392 34.5764 3.16944 34.5764 3.40742 34.5764C3.40742 34.0139 3.40742 33.4731 3.40742 32.8457C3.12617 32.8457 2.8233 32.8565 2.53124 32.8457C1.12504 32.8024 0.0108908 31.6667 7.38243e-05 30.2713C7.38243e-05 28.8434 1.12504 27.6968 2.56369 27.6644C2.84493 27.6536 3.12617 27.6644 3.4615 27.6644C3.4615 27.0803 3.48313 26.5394 3.45068 26.0094C3.43987 25.8796 3.28843 25.7173 3.15863 25.6416C2.20673 25.1008 1.7416 24.3003 1.7416 23.2186C1.7416 20.9903 1.7416 18.7512 1.7416 16.5229C1.7416 15.4737 2.20673 14.6948 3.10454 14.1756C3.61294 13.8836 3.63457 13.0399 3.12617 12.7045C0.270498 10.7575 -0.76793 7.20951 0.595006 4.12668C1.77405 1.45489 4.56483 -0.210922 7.46377 0.0270508C10.3411 0.254207 12.829 2.32025 13.5862 5.11102C14.3434 7.92343 13.2292 10.963 10.817 12.618C10.1572 13.0723 10.168 13.8079 10.8387 14.2297C11.6283 14.7273 12.0718 15.4412 12.0826 16.3715C12.1042 18.7079 12.1042 21.0552 12.0826 23.3917C12.0718 24.3868 11.5634 25.1116 10.7089 25.6308C10.5466 25.7281 10.406 25.9553 10.3844 26.1392C10.3411 26.6151 10.3735 27.1019 10.3735 27.6211ZM8.64282 13.8079C8.64282 13.4401 8.68609 13.1264 8.63201 12.8343C8.52384 12.1204 8.79426 11.7526 9.45409 11.4065C11.7906 10.1517 12.7208 7.25278 11.6608 4.8406C10.5791 2.39596 7.82073 1.16283 5.28957 2.00655C3.32088 2.65557 1.89304 4.48364 1.75242 6.53886C1.60098 8.63735 2.71513 10.6169 4.64055 11.5579C5.08404 11.7743 5.2463 12.0122 5.20303 12.4882C5.15976 12.9209 5.19221 13.3752 5.19221 13.8187C6.37126 13.8079 7.47459 13.8079 8.64282 13.8079ZM5.1814 39.7794C5.1814 40.1471 5.14895 40.45 5.19221 40.7529C5.28957 41.456 5.06241 41.8346 4.38094 42.1916C2.14183 43.3814 1.17912 46.064 2.04448 48.4438C2.92065 50.8559 5.35447 52.2189 7.95054 51.7537C10.2978 51.3319 12.1259 49.1144 12.0718 46.6481C12.0285 44.4956 10.9685 42.9379 9.05387 41.9752C8.74018 41.813 8.59956 41.6507 8.62119 41.2937C8.65364 40.7962 8.63201 40.2986 8.63201 39.7902C7.46377 39.7794 6.36045 39.7794 5.1814 39.7794ZM3.4615 19.8762C3.4615 20.9579 3.4615 22.0396 3.4615 23.1104C3.4615 23.8893 3.76438 24.1921 4.53238 24.1921C6.11166 24.1921 7.70175 24.1921 9.28102 24.1921C10.0598 24.1921 10.3627 23.8893 10.3627 23.1213C10.3627 20.9579 10.3627 18.8053 10.3627 16.6419C10.3627 15.8631 10.0598 15.5602 9.29184 15.5602C7.71256 15.5602 6.12247 15.5602 4.5432 15.5602C3.76438 15.5602 3.4615 15.8631 3.4615 16.6311C3.45068 17.7128 3.4615 18.7945 3.4615 19.8762ZM6.87966 31.115C8.2426 31.115 9.61635 31.115 10.9793 31.115C11.6932 31.115 12.1042 30.7797 12.0934 30.228C12.0826 29.698 11.6824 29.3843 11.0009 29.3843C8.28586 29.3843 5.57081 29.3843 2.84493 29.3843C2.13101 29.3843 1.71997 29.7088 1.73079 30.2713C1.7416 30.8013 2.14183 31.115 2.8233 31.115C4.17542 31.115 5.52754 31.115 6.87966 31.115ZM6.89048 38.027C8.27505 38.027 9.65962 38.027 11.0442 38.027C11.7148 38.027 12.1151 37.6809 12.0934 37.14C12.0718 36.6208 11.6932 36.3071 11.0442 36.3071C8.28586 36.3071 5.53836 36.3071 2.78003 36.3071C2.10938 36.3071 1.70915 36.6533 1.73079 37.1941C1.75242 37.7133 2.13101 38.027 2.78003 38.027C4.15379 38.027 5.51672 38.027 6.89048 38.027ZM8.59956 27.6427C8.59956 27.0803 8.59956 26.5286 8.59956 25.9661C7.46377 25.9661 6.33881 25.9661 5.23548 25.9661C5.23548 26.5502 5.23548 27.0911 5.23548 27.6427C6.36045 27.6427 7.45296 27.6427 8.59956 27.6427ZM5.21385 32.8673C5.21385 33.4623 5.21385 33.9923 5.21385 34.544C6.36045 34.544 7.48541 34.544 8.59956 34.544C8.59956 33.9707 8.59956 33.419 8.59956 32.8673C7.46377 32.8673 6.34963 32.8673 5.21385 32.8673Z" fill="black"/>
<path d="M27.6483 37.9945C27.6483 37.2157 27.67 36.4477 27.6375 35.6689C27.6267 35.485 27.4969 35.2254 27.3346 35.1389C26.3936 34.5872 25.9176 33.7976 25.9176 32.705C25.9176 27.329 25.9176 21.9422 25.9176 16.5661C25.9176 15.4736 26.3828 14.6732 27.3238 14.1323C27.7673 13.8835 27.789 13.0074 27.3563 12.7153C25.8095 11.6769 24.8035 10.2599 24.3708 8.44261C23.473 4.69994 25.9717 0.838289 29.7685 0.124369C33.6301 -0.611184 37.3728 1.9957 37.9136 5.83572C38.3139 8.73467 37.243 11.0062 34.8741 12.6937C34.3873 13.0398 34.4198 13.8619 34.9282 14.1648C35.7935 14.6624 36.2695 15.4195 36.2695 16.4147C36.2803 21.8881 36.2803 27.3615 36.2695 32.824C36.2695 33.8408 35.7827 34.6196 34.8849 35.0956C34.6253 35.2362 34.5387 35.3877 34.5387 35.6689C34.5496 37.1833 34.5604 38.6976 34.5387 40.2012C34.5279 40.5582 34.6577 40.742 34.939 40.9259C37.2754 42.4944 38.422 45.3176 37.8595 48.0327C37.2971 50.7369 35.1337 52.8895 32.4402 53.4303C29.2384 54.0685 25.9933 52.3486 24.7169 49.3523C23.4405 46.356 24.4249 42.8838 27.1075 41.0233C27.4969 40.7529 27.6592 40.4933 27.6267 40.0281C27.6159 39.3575 27.6483 38.676 27.6483 37.9945ZM34.5604 24.6897C34.5604 22.0071 34.5604 19.3245 34.5604 16.6419C34.5604 15.863 34.2575 15.5602 33.4787 15.5602C31.8994 15.5602 30.3093 15.5602 28.73 15.5602C27.9512 15.5602 27.6483 15.863 27.6483 16.6419C27.6483 21.9638 27.6483 27.2966 27.6483 32.6185C27.6483 33.3973 27.9512 33.7002 28.73 33.7002C30.2769 33.7002 31.8237 33.7002 33.3705 33.7002C34.29 33.7002 34.5604 33.4298 34.5604 32.5103C34.5604 29.9035 34.5604 27.2966 34.5604 24.6897ZM29.3791 35.4526C29.3791 37.3239 29.3574 39.1411 29.3899 40.9476C29.4007 41.5101 29.2601 41.8129 28.7192 42.0942C26.3179 43.3165 25.3011 46.1505 26.307 48.6276C27.313 51.0831 30.0389 52.3919 32.5592 51.6347C34.6036 51.0182 36.0639 49.2442 36.2695 47.1241C36.4642 45.0796 35.3716 43.0461 33.4895 42.105C32.9486 41.8346 32.7972 41.5425 32.8188 40.9692C32.8621 39.6171 32.8297 38.2758 32.8297 36.9237C32.8297 36.4477 32.8297 35.9609 32.8297 35.4634C31.6614 35.4526 30.5473 35.4526 29.3791 35.4526ZM29.3791 13.7862C30.5797 13.7862 31.6939 13.7862 32.8297 13.7862C32.8297 13.44 32.8729 13.1264 32.8188 12.8235C32.7107 12.1096 32.9703 11.7418 33.6409 11.3956C35.4798 10.4437 36.5182 8.30199 36.2586 6.34412C35.9558 4.13746 34.4414 2.40675 32.3429 1.88753C30.3201 1.37914 28.1459 2.17959 26.902 3.88867C25.009 6.49556 25.9176 10.1192 28.8598 11.5795C29.2601 11.7742 29.4115 12.0014 29.3791 12.4341C29.3466 12.8667 29.3791 13.3211 29.3791 13.7862Z" fill="black"/>
<path d="M10.3627 6.90665C10.3735 8.81043 8.81588 10.3789 6.91209 10.3789C5.00831 10.3789 3.45066 8.82125 3.46148 6.90665C3.46148 5.0245 5.00831 3.47767 6.89046 3.46685C8.79424 3.45604 10.3627 5.00286 10.3627 6.90665ZM8.6428 6.89583C8.63199 5.95475 7.84235 5.18675 6.90127 5.19757C5.9602 5.19757 5.19219 5.97639 5.19219 6.91746C5.19219 7.88017 5.99265 8.66981 6.95536 8.64818C7.88562 8.62654 8.65362 7.8369 8.6428 6.89583Z" fill="black"/>
<path d="M10.3628 46.6698C10.3628 48.5736 8.79432 50.1312 6.89053 50.1204C4.98675 50.1096 3.43992 48.5411 3.45074 46.6374C3.46156 44.7552 5.00838 43.2192 6.89053 43.2084C8.81595 43.2084 10.3736 44.7552 10.3628 46.6698ZM6.9338 44.9391C5.99272 44.9283 5.20309 45.6963 5.19227 46.6374C5.18145 47.5784 5.93864 48.3681 6.87972 48.3897C7.84242 48.4113 8.64288 47.6217 8.6537 46.6698C8.64288 45.7287 7.86406 44.9499 6.9338 44.9391Z" fill="black"/>
<path d="M8.62121 17.3341C8.62121 17.8966 8.62121 18.4266 8.62121 18.9891C7.48543 18.9891 6.36046 18.9891 5.21387 18.9891C5.21387 18.4374 5.21387 17.9074 5.21387 17.3341C6.32801 17.3341 7.44216 17.3341 8.62121 17.3341Z" fill="black"/>
<path d="M8.61032 22.4506C7.47454 22.4506 6.37121 22.4506 5.22461 22.4506C5.22461 21.9098 5.22461 21.3581 5.22461 20.7848C6.33876 20.7848 7.46372 20.7848 8.61032 20.7848C8.61032 21.3256 8.61032 21.8557 8.61032 22.4506Z" fill="black"/>
<path d="M31.0772 43.2083C32.9918 43.1975 34.5495 44.7443 34.5495 46.6481C34.5495 48.5519 32.9918 50.1095 31.0881 50.1095C29.2059 50.1095 27.6483 48.5735 27.6375 46.6914C27.6375 44.7876 29.1735 43.2191 31.0772 43.2083ZM32.8296 46.6806C32.8404 45.7395 32.0724 44.9498 31.1313 44.939C30.1903 44.9282 29.4006 45.6854 29.379 46.6265C29.3573 47.5892 30.147 48.3896 31.0989 48.4004C32.04 48.3896 32.8188 47.6216 32.8296 46.6806Z" fill="black"/>
<path d="M31.1204 10.3788C29.2167 10.3896 27.6482 8.83201 27.6482 6.92822C27.6482 5.02444 29.2058 3.4668 31.1096 3.4668C32.9918 3.4668 34.5386 5.0028 34.5494 6.88496C34.571 8.79956 33.0242 10.368 31.1204 10.3788ZM32.8295 6.93904C32.8403 5.99796 32.0723 5.20833 31.1313 5.19751C30.1902 5.17588 29.4005 5.94388 29.3681 6.87414C29.3465 7.83685 30.1253 8.64812 31.088 8.64812C32.0291 8.64812 32.8187 7.88012 32.8295 6.93904Z" fill="black"/>
</svg>
