<svg width="136" height="93" viewBox="0 0 136 93" fill="none" xmlns="http://www.w3.org/2000/svg">
<path d="M44.2476 43.8137C44.2476 47.4031 41.8624 52.9146 40.9593 56.4113L37.833 58.426H23.7533L21.9702 65.2806H29.1259L34.5678 72.0657H18.1724C15.5556 72.0657 12.8694 71.1626 12.8694 68.0363C12.8694 65.3501 17.7787 47.9821 18.844 44.4853C19.6545 41.058 22.5723 39.8538 25.768 39.8538H38.6667C41.2835 39.8538 44.2476 40.8264 44.2476 43.8137ZM33.4563 51.803L34.8689 46.5926H26.9722L25.6291 51.803H33.4563Z" fill="white"/>
<path d="M92.0444 43.6748C92.0444 45.759 85.6298 68.43 84.5877 72.0657H75.649L82.4341 46.8011H74.3059L67.5902 72.0657H58.8599L65.5755 46.8011H57.4473L50.7317 72.0657H41.9319L49.2265 44.7169L45.1971 39.877C45.1971 39.877 82.3183 39.8075 86.5561 39.8075C89.1266 39.7844 92.0444 40.5254 92.0444 43.6748Z" fill="white"/>
<path d="M124.164 43.6747C124.164 45.7589 119.532 61.5754 118.722 64.5395C116.475 72.9688 106.263 72.0657 99.5704 72.0657L96.8147 82.3938H88.177L97.9494 45.2958L93.619 39.8538C93.619 39.8538 115.086 39.7843 118.745 39.7843C121.269 39.7843 124.164 40.5253 124.164 43.6747ZM110.153 63.1269L114.692 47.0326H106.286L101.516 65.2111H106.657C108.301 65.2111 109.783 64.7711 110.153 63.1269Z" fill="white"/>
<path d="M123.886 35.4539C124.627 35.4539 125.298 35.0602 125.53 34.4581L126.688 31.4476H101.585C101.562 32.9065 101.632 34.5507 101.423 35.6854L123.886 35.4539Z" fill="#ED2C37"/>
<path d="M102.28 26.0057C102.326 26.8162 102.419 28.3446 102.442 30.012H125.877C126.618 30.012 127.29 29.6183 127.521 29.0162L128.679 26.0057H102.28Z" fill="#ED2C37"/>
<path d="M24.6101 26.1215C23.8691 26.1215 23.1975 26.5152 22.966 27.1173L21.8081 30.1277H46.0307C46.0539 28.692 46.3781 27.3025 46.6096 26.191L24.6101 26.1215Z" fill="#ED2C37"/>
<path d="M46.216 35.5698C46.1697 34.7593 46.0771 33.2309 46.0539 31.5635H22.6187C21.8777 31.5635 21.2061 31.9572 20.9745 32.5593L19.8167 35.5698H46.216Z" fill="#ED2C37"/>
<path d="M114.368 92.6294H6.96422C4.81059 92.6294 2.7959 91.6568 1.47593 89.9432C0.155961 88.2295 -0.307186 86.0527 0.202276 83.9686L14.2819 27.673C15.4861 22.8563 19.7934 19.4985 24.7491 19.4985H46.7254C48.9254 13.8944 52.7 9.07768 57.6557 5.60408C62.8661 1.94522 69.0028 0 75.3711 0C81.7625 0 87.876 1.94522 93.0864 5.60408C98.0421 9.10084 101.817 13.8944 104.017 19.4985H128.564C130.856 19.4985 133.01 20.5406 134.422 22.3468C135.835 24.1531 136.344 26.492 135.765 28.7151L121.107 87.3264C120.366 90.4526 117.587 92.6294 114.368 92.6294ZM24.7491 20.8879C20.4186 20.8879 16.6672 23.8289 15.6251 28.0204L1.5454 84.3159C1.12857 86.0064 1.49909 87.7432 2.56433 89.1095C3.62956 90.4758 5.25058 91.2631 6.96422 91.2631H114.368C116.939 91.2631 119.185 89.5263 119.787 87.0253L134.445 28.4141C134.909 26.5846 134.492 24.6857 133.334 23.2037C132.176 21.7216 130.439 20.8648 128.564 20.8648H103.09L102.928 20.4248C98.6442 9.03137 87.575 1.36628 75.3711 1.36628C63.1903 1.36628 52.1211 9.03137 47.837 20.4248L47.6749 20.8648H24.7491V20.8879Z" fill="#ED2C37"/>
<path d="M90.1455 35.9402L89.0571 35.8939C89.2424 34.9444 89.2887 33.5781 89.2887 32.6055C89.2887 23.991 82.2952 16.9743 73.6807 16.9743C65.0661 16.9743 58.0726 23.991 58.0726 32.6055C58.0726 33.5781 58.1884 34.9676 58.3505 35.917H57.1231C56.9379 34.8981 56.8684 33.6476 56.8684 32.6055C56.8684 23.3194 64.4177 15.7701 73.6807 15.7701C82.9436 15.7701 90.4929 23.3194 90.4929 32.6055C90.4697 33.6708 90.3308 34.9213 90.1455 35.9402Z" fill="#ED2C37"/>
<path d="M100.034 30.1046C99.8946 30.1046 99.802 30.1046 99.6862 30.1046C97.2779 30.2204 94.8695 30.3361 92.4611 30.4288C91.8359 30.4519 91.3033 30.313 90.8401 30.0351C90.9559 30.8688 91.0254 31.7024 91.0254 32.5824C91.0254 33.3929 90.7938 35.1529 90.7012 35.9402H99.941C100.196 34.0182 100.219 32.0729 100.034 30.1046ZM95.0779 33.8097C94.5684 34.0876 94.0358 34.3655 93.5264 34.6203C93.2253 34.7592 92.9474 34.6666 92.8316 34.3887C92.6927 34.0876 92.8316 33.8561 93.0864 33.7171C93.5958 33.4392 94.1285 33.1845 94.6379 32.9066C95.0084 32.7214 95.4021 32.9529 95.379 33.4624C95.3326 33.555 95.24 33.7403 95.0779 33.8097ZM98.1115 31.8414C97.6252 32.235 97.0926 32.5824 96.5831 32.9298C96.56 32.9529 96.5137 32.9298 96.3747 32.9529C96.2821 32.8835 96.0968 32.7677 96.0505 32.6287C96.0042 32.4666 96.0505 32.2119 96.1663 32.1193C96.5831 31.7719 97.0231 31.4477 97.5094 31.193C97.6484 31.1235 97.9494 31.193 98.0652 31.3087C98.1578 31.4014 98.181 31.7719 98.1115 31.8414Z" fill="#ED2C37"/>
<path d="M100.034 30.1046C99.8946 30.1046 99.802 30.1046 99.6862 30.1046C97.2779 30.2204 94.8695 30.3361 92.4611 30.4288C91.8359 30.4519 91.3033 30.313 90.8401 30.0351C90.9559 30.8688 91.0254 31.7024 91.0254 32.5824C91.0254 33.3929 90.7938 35.1529 90.7012 35.9402H99.941C100.196 34.0182 100.219 32.0729 100.034 30.1046ZM95.0779 33.8097C94.5684 34.0876 94.0358 34.3655 93.5264 34.6203C93.2253 34.7592 92.9474 34.6666 92.8316 34.3887C92.6927 34.0876 92.8316 33.8561 93.0864 33.7171C93.5958 33.4392 94.1285 33.1845 94.6379 32.9066C95.0084 32.7214 95.4021 32.9529 95.379 33.4624C95.3326 33.555 95.24 33.7403 95.0779 33.8097ZM98.1115 31.8414C97.6252 32.235 97.0926 32.5824 96.5831 32.9298C96.56 32.9529 96.5137 32.9298 96.3747 32.9529C96.2821 32.8835 96.0968 32.7677 96.0505 32.6287C96.0042 32.4666 96.0505 32.2119 96.1663 32.1193C96.5831 31.7719 97.0231 31.4477 97.5094 31.193C97.6484 31.1235 97.9494 31.193 98.0652 31.3087C98.1578 31.4014 98.181 31.7719 98.1115 31.8414Z" fill="#ED2C37"/>
<path d="M73.5879 15.1217C73.9352 15.1217 74.2826 15.1448 74.6299 15.1448C74.352 14.728 74.1899 14.2185 74.1668 13.6627C74.1205 12.5049 74.0742 11.3238 74.0047 10.166C73.9352 8.82285 73.8889 7.47973 73.8194 6.1366C65.3207 5.90503 54.5525 10.6523 49.5274 21.7678C47.4664 26.3067 46.818 31.216 47.42 35.9401H56.4746C56.2662 34.8517 56.1504 33.7402 56.1504 32.5823C56.1272 22.9488 63.9544 15.1217 73.5879 15.1217ZM68.3311 11.2081C68.3775 11.0691 68.5859 10.9765 68.7248 10.8607C68.8869 10.9765 69.049 11.0228 69.1416 11.1386C69.5353 11.5786 69.929 12.0186 70.3227 12.4817C70.5311 12.7364 70.5079 13.0375 70.2764 13.2228C70.0216 13.408 69.7669 13.3617 69.5585 13.1301C69.1648 12.6901 68.748 12.2501 68.4006 11.787C68.308 11.6249 68.2848 11.3702 68.3311 11.2081ZM65.9459 8.82285C66.108 8.61444 66.3628 8.52181 66.548 8.68391C67.0112 9.03127 67.428 9.42495 67.868 9.81862C67.9375 9.86494 67.9375 10.0039 68.0069 10.1428C67.9143 10.2586 67.8217 10.4439 67.6827 10.5133C67.5438 10.5828 67.2891 10.5597 67.1733 10.467C66.7564 10.1428 66.3628 9.79546 65.9922 9.4481C65.7838 9.26284 65.7838 9.03127 65.9459 8.82285ZM59.9019 15.4459C60.0408 15.1911 60.2492 15.0753 60.5503 15.1911C61.106 15.4227 61.685 15.6543 62.2176 15.909C62.3797 15.9785 62.4723 16.1637 62.5418 16.2332C62.5418 16.6732 62.2176 16.9511 61.8934 16.8121C61.3145 16.5806 60.7124 16.349 60.1566 16.0711C59.8787 15.9785 59.7629 15.7237 59.9019 15.4459ZM56.7293 14.5196C56.8219 14.2185 57.0303 14.0796 57.3546 14.149C57.8409 14.2648 58.3272 14.3806 58.7903 14.5427C58.9524 14.6122 59.0682 14.7975 59.1377 14.8669C59.1377 15.3301 58.8366 15.5616 58.4893 15.4922C58.0261 15.3764 57.5861 15.2374 57.123 15.1217C56.8219 15.029 56.6598 14.7743 56.7293 14.5196ZM51.1484 23.1573C51.6578 23.0183 52.1673 22.9257 52.6073 22.8562C52.9778 22.8794 53.1862 22.9952 53.2094 23.2962C53.2557 23.5741 53.0936 23.7825 52.8389 23.8288C52.3526 23.9446 51.8431 24.0372 51.3336 24.1067C51.0557 24.153 50.8473 24.0141 50.801 23.7362C50.7315 23.4351 50.8705 23.2267 51.1484 23.1573ZM51.1021 33.9254C50.7547 34.2033 50.4073 34.458 50.06 34.7128C49.8053 34.898 49.5274 34.898 49.3421 34.6896C49.1568 34.4812 49.1568 34.1802 49.4116 33.9717C49.8053 33.6475 50.2221 33.3465 50.6389 33.0686C50.9863 32.837 51.4031 33.0918 51.38 33.6012C51.3105 33.6707 51.241 33.8328 51.1021 33.9254ZM54.2515 32.0728C53.742 32.3739 53.2325 32.6518 52.7231 32.9297C52.4452 33.0918 52.2136 33.0223 52.0284 32.7676C51.8663 32.536 51.9357 32.2349 52.2136 32.0728C52.7462 31.7718 53.2789 31.4707 53.8115 31.1929C54.1588 31.0076 54.5525 31.2392 54.5525 31.7255C54.483 31.795 54.3904 31.9802 54.2515 32.0728ZM55.4325 23.5972C55.1546 23.6204 54.8999 23.6436 54.622 23.6436C54.2746 23.6436 54.043 23.4815 54.043 23.1804C54.043 22.8562 54.2283 22.671 54.5294 22.6478C55.1083 22.6015 55.6872 22.5552 56.2893 22.5552C56.6135 22.532 56.8451 22.7636 56.8451 23.0415C56.8451 23.3425 56.6367 23.5278 56.2893 23.5509C56.1504 23.5509 55.9883 23.5509 55.8493 23.5741C55.7104 23.5741 55.5483 23.5741 55.4093 23.5741C55.4325 23.5972 55.4325 23.5972 55.4325 23.5972Z" fill="#ED2C37"/>
<path d="M73.5879 15.1217C73.9352 15.1217 74.2826 15.1448 74.6299 15.1448C74.352 14.728 74.1899 14.2185 74.1668 13.6627C74.1205 12.5049 74.0742 11.3238 74.0047 10.166C73.9352 8.82285 73.8889 7.47973 73.8194 6.1366C65.3207 5.90503 54.5525 10.6523 49.5274 21.7678C47.4664 26.3067 46.818 31.216 47.42 35.9401H56.4746C56.2662 34.8517 56.1504 33.7402 56.1504 32.5823C56.1272 22.9488 63.9544 15.1217 73.5879 15.1217ZM68.3311 11.2081C68.3775 11.0691 68.5859 10.9765 68.7248 10.8607C68.8869 10.9765 69.049 11.0228 69.1416 11.1386C69.5353 11.5786 69.929 12.0186 70.3227 12.4817C70.5311 12.7364 70.5079 13.0375 70.2764 13.2228C70.0216 13.408 69.7669 13.3617 69.5585 13.1301C69.1648 12.6901 68.748 12.2501 68.4006 11.787C68.308 11.6249 68.2848 11.3702 68.3311 11.2081ZM65.9459 8.82285C66.108 8.61444 66.3628 8.52181 66.548 8.68391C67.0112 9.03127 67.428 9.42495 67.868 9.81862C67.9375 9.86494 67.9375 10.0039 68.0069 10.1428C67.9143 10.2586 67.8217 10.4439 67.6827 10.5133C67.5438 10.5828 67.2891 10.5597 67.1733 10.467C66.7564 10.1428 66.3628 9.79546 65.9922 9.4481C65.7838 9.26284 65.7838 9.03127 65.9459 8.82285ZM59.9019 15.4459C60.0408 15.1911 60.2492 15.0753 60.5503 15.1911C61.106 15.4227 61.685 15.6543 62.2176 15.909C62.3797 15.9785 62.4723 16.1637 62.5418 16.2332C62.5418 16.6732 62.2176 16.9511 61.8934 16.8121C61.3145 16.5806 60.7124 16.349 60.1566 16.0711C59.8787 15.9785 59.7629 15.7237 59.9019 15.4459ZM56.7293 14.5196C56.8219 14.2185 57.0303 14.0796 57.3546 14.149C57.8409 14.2648 58.3272 14.3806 58.7903 14.5427C58.9524 14.6122 59.0682 14.7975 59.1377 14.8669C59.1377 15.3301 58.8366 15.5616 58.4893 15.4922C58.0261 15.3764 57.5861 15.2374 57.123 15.1217C56.8219 15.029 56.6598 14.7743 56.7293 14.5196ZM51.1484 23.1573C51.6578 23.0183 52.1673 22.9257 52.6073 22.8562C52.9778 22.8794 53.1862 22.9952 53.2094 23.2962C53.2557 23.5741 53.0936 23.7825 52.8389 23.8288C52.3526 23.9446 51.8431 24.0372 51.3336 24.1067C51.0557 24.153 50.8473 24.0141 50.801 23.7362C50.7315 23.4351 50.8705 23.2267 51.1484 23.1573ZM51.1021 33.9254C50.7547 34.2033 50.4073 34.458 50.06 34.7128C49.8053 34.898 49.5274 34.898 49.3421 34.6896C49.1568 34.4812 49.1568 34.1802 49.4116 33.9717C49.8053 33.6475 50.2221 33.3465 50.6389 33.0686C50.9863 32.837 51.4031 33.0918 51.38 33.6012C51.3105 33.6707 51.241 33.8328 51.1021 33.9254ZM54.2515 32.0728C53.742 32.3739 53.2325 32.6518 52.7231 32.9297C52.4452 33.0918 52.2136 33.0223 52.0284 32.7676C51.8663 32.536 51.9357 32.2349 52.2136 32.0728C52.7462 31.7718 53.2789 31.4707 53.8115 31.1929C54.1588 31.0076 54.5525 31.2392 54.5525 31.7255C54.483 31.795 54.3904 31.9802 54.2515 32.0728ZM55.4325 23.5972C55.1546 23.6204 54.8999 23.6436 54.622 23.6436C54.2746 23.6436 54.043 23.4815 54.043 23.1804C54.043 22.8562 54.2283 22.671 54.5294 22.6478C55.1083 22.6015 55.6872 22.5552 56.2893 22.5552C56.6135 22.532 56.8451 22.7636 56.8451 23.0415C56.8451 23.3425 56.6367 23.5278 56.2893 23.5509C56.1504 23.5509 55.9883 23.5509 55.8493 23.5741C55.7104 23.5741 55.5483 23.5741 55.4093 23.5741C55.4325 23.5972 55.4325 23.5972 55.4325 23.5972Z" fill="#ED2C37"/>
<path d="M96.0737 29.2709C94.8695 29.3172 93.6653 29.3867 92.4612 29.433C91.4191 29.4793 90.7707 28.9467 90.5854 27.9278C89.3581 21.3048 84.0551 16.2565 77.3857 15.3997C77.1542 15.3765 76.9226 15.3533 76.691 15.3302C75.8342 15.2375 75.2553 14.6586 75.1858 13.8018C75.1395 13.2229 75.1163 12.6439 75.0931 12.0418C75.0005 10.0966 74.9311 8.1514 74.8384 6.20618C74.7921 4.8399 75.4637 4.19149 76.8531 4.26096C87.3897 4.8399 96.4211 11.3934 100.173 21.2121C100.914 23.111 101.4 25.0794 101.678 27.1173C101.84 28.252 101.145 29.0625 99.9873 29.1088C98.6673 29.1551 97.3705 29.2246 96.0737 29.2709C96.0506 29.2709 96.0737 29.2709 96.0737 29.2709ZM95.68 27.1867C95.68 27.1636 95.68 27.1404 95.68 27.1173C96.2358 27.0941 96.7684 27.071 97.3242 27.0478C98.621 26.9783 99.3157 26.052 99.0147 24.8015C97.9031 20.3553 95.7495 16.5112 92.4612 13.2923C88.756 9.65663 84.3098 7.47984 79.1688 6.66933C77.9183 6.48407 77.0615 7.27142 77.1078 8.54507C77.1542 9.58716 77.2005 10.6292 77.2468 11.6945C77.2931 12.6208 77.8257 13.246 78.7289 13.4313C81.1141 13.8944 83.2909 14.7976 85.2824 16.1638C88.756 18.5722 91.118 21.7911 92.3222 25.8436C92.6001 26.8162 93.2022 27.2331 94.2211 27.2099C94.7074 27.1636 95.1937 27.1867 95.68 27.1867Z" fill="#ED2C37"/>
<path d="M95.6568 26.1215C95.1474 26.1447 94.6611 26.1678 94.1516 26.191C93.6422 26.2142 93.4337 26.0521 93.2948 25.5889C91.9748 21.1195 89.358 17.6459 85.4908 15.0755C83.5224 13.7787 81.3456 12.8987 79.0299 12.4587C78.4278 12.3429 78.2888 12.1808 78.2425 11.6019C78.1962 10.5366 78.1499 9.49454 78.1036 8.4293C78.0804 7.87353 78.4509 7.59564 79.0067 7.68827C81.9708 8.15142 84.7497 9.10087 87.3202 10.6524C92.8316 13.9871 96.3747 18.7806 98.0189 25.01C98.2041 25.7278 97.9494 26.0521 97.1852 26.0984C96.6758 26.0752 96.1663 26.0984 95.6568 26.1215ZM93.9664 23.4353C94.6148 23.3658 95.3326 23.2963 96.0505 23.2269C96.3747 23.1805 96.5831 22.949 96.56 22.6711C96.5368 22.3932 96.3052 22.2079 95.9579 22.2311C95.24 22.3006 94.5221 22.37 93.8274 22.4395C93.4106 22.4858 93.2253 22.6942 93.2485 22.9953C93.2716 23.2963 93.5032 23.4584 93.9664 23.4353ZM82.2487 10.5829C82.2487 10.2124 82.2487 9.8419 82.2487 9.44823C82.2487 9.10087 82.0403 8.89245 81.7393 8.89245C81.4614 8.89245 81.253 9.10087 81.253 9.44823C81.253 10.1893 81.253 10.9303 81.253 11.6713C81.253 12.0187 81.4614 12.2271 81.7624 12.2271C82.0403 12.2271 82.2487 12.0187 82.2487 11.6713C82.2487 11.324 82.2487 10.9535 82.2487 10.5829Z" fill="#ED2C37"/>
<path d="M72.8007 36.1255C73.4491 35.6392 74.0975 35.1529 74.7459 34.6665C74.5607 34.2729 74.5144 34.2729 74.1902 34.5044C73.4028 35.0602 72.6155 35.5928 71.8281 36.1255H72.8007Z" fill="#ED2C37"/>
<path d="M73.6111 36.1255H74.4911C74.6995 35.9634 74.9079 35.8013 75.1163 35.6392C75.2089 35.5697 75.3016 35.5003 75.3942 35.4308C75.3016 35.315 75.2089 35.1992 75.1163 35.0834C74.8153 35.2919 74.5142 35.4771 74.2132 35.6855C74.0048 35.8476 73.7963 35.9866 73.6111 36.1255Z" fill="#ED2C37"/>
<path d="M63.4451 25.7741C63.5609 25.9131 63.6072 26.0057 63.5377 26.1909C63.4219 26.5846 63.5377 26.9551 63.8156 27.2793C65.3672 29.1551 64.9503 28.5298 66.5019 30.4056C66.5714 30.4751 66.6177 30.5445 66.664 30.5908C66.525 30.7993 66.3861 30.9614 66.2703 31.1698C66.1314 31.4477 66.1082 31.7719 66.224 32.0498C66.525 32.675 66.9419 33.2308 67.6366 33.5318C67.6134 33.5781 67.5903 33.6476 67.544 33.7171C67.405 33.995 67.3819 34.296 67.544 34.5507C67.7061 34.8286 67.8913 35.0834 68.1229 35.3149C68.4934 35.6855 68.9797 35.6855 69.4197 35.3613C69.5355 35.2686 69.6513 35.176 69.7902 35.0602C70.0681 35.4076 70.3692 35.7549 70.647 36.1023H71.2491C71.2491 36.0328 71.2954 35.9402 71.3881 35.8939C72.2217 35.2686 73.0323 34.6665 73.8659 34.0413C73.9354 33.995 74.028 33.9255 74.1207 33.856C74.028 33.7402 73.9354 33.6245 73.8428 33.5087C73.3101 33.8792 72.8007 34.2265 72.2681 34.5971C71.8512 34.8749 71.4576 35.176 71.0407 35.4539C70.9712 35.5002 70.786 35.5002 70.7165 35.4307C70.5776 35.3149 70.6702 35.1992 70.8091 35.1065C71.6428 34.4813 72.4765 33.856 73.3101 33.2308C73.3796 33.1845 73.4259 33.1381 73.4954 33.0687C73.3333 32.8603 73.1712 32.675 73.0091 32.4666C73.148 32.3508 73.2638 32.2813 73.3565 32.1887C73.7733 31.8413 73.8659 31.355 73.588 30.8919C73.4259 30.6372 73.2175 30.4056 73.0091 30.1972C72.6386 29.873 72.1754 29.873 71.7818 30.174C70.8555 30.915 69.9523 31.6792 69.026 32.4203C68.9566 32.4897 68.8871 32.5361 68.8176 32.6055C68.7945 32.5824 68.7713 32.5592 68.7481 32.5361C69.2576 32.0498 69.7439 31.5634 70.2534 31.054C70.7628 30.5677 71.2723 30.0582 71.8049 29.5488C71.4112 28.993 71.1102 28.3214 70.346 28.2056C70.0218 28.1593 69.7208 28.2519 69.466 28.4604C68.7945 28.993 68.1229 29.5256 67.4513 30.0582C67.405 30.0814 67.3587 30.1045 67.3355 30.1277C67.3124 30.1045 67.3124 30.1045 67.2892 30.0814C67.845 29.433 68.4239 28.7846 68.9797 28.1362C68.8408 27.9509 68.7018 27.7888 68.5629 27.6035C67.2198 25.9594 67.8219 26.8625 66.5019 25.1952C66.0156 24.5931 65.3672 24.5005 64.7188 24.9404C64.4177 25.1489 64.1398 25.4036 63.8619 25.6352C63.7462 25.3341 64.2556 24.7783 64.9735 24.3615C64.5335 23.8289 64.1167 23.25 63.6535 22.7637C63.3293 22.4163 62.7272 22.4858 62.3567 22.8331C61.9862 23.1805 61.9167 23.7131 62.2409 24.1299C62.5651 24.7089 63.0051 25.2415 63.4451 25.7741Z" fill="#ED2C37"/>
<path d="M77.2932 35.9403C77.3626 35.9866 77.4089 36.056 77.4089 36.1255H77.9879C78.2426 35.8013 78.4973 35.5003 78.7752 35.1761C78.891 35.2687 79.0068 35.3613 79.1226 35.454C79.5163 35.755 79.9794 35.755 80.3268 35.4076C80.5352 35.1992 80.7204 34.9445 80.8825 34.7129C81.0447 34.4582 81.0215 34.1803 80.8825 33.9256C80.8594 33.8561 80.8362 33.8098 80.8131 33.7635C81.4615 33.4856 81.832 32.9761 82.1331 32.374C82.272 32.1193 82.2257 31.8183 82.1099 31.5635C82.0173 31.3783 81.8783 31.2162 81.7394 31.0309C81.7857 30.9846 81.832 30.9151 81.8783 30.8456C83.3141 29.0857 82.9436 29.6878 84.3793 27.9278C84.634 27.6268 84.7267 27.3026 84.634 26.9089C84.5877 26.7468 84.634 26.631 84.7267 26.5152C85.1435 26.0289 85.5603 25.5194 85.954 25.01C86.2551 24.6395 86.1856 24.13 85.8382 23.8058C85.4909 23.4816 84.9351 23.4121 84.634 23.7363C84.1941 24.1995 83.8004 24.7321 83.3835 25.2416C84.0551 25.6352 84.5183 26.1447 84.4025 26.4226C84.1246 26.191 83.8699 25.9594 83.592 25.7742C82.9899 25.3573 82.3646 25.45 81.9246 26.0058C80.6973 27.5573 81.2531 26.7236 80.0026 28.252C79.8636 28.4141 79.7478 28.5762 79.6089 28.7383C80.1415 29.3636 80.6741 29.9657 81.2068 30.5678C81.1836 30.5909 81.1836 30.5909 81.1604 30.6141C81.1141 30.5909 81.091 30.5678 81.0447 30.5446C80.4194 30.0583 79.7942 29.5488 79.1689 29.0625C78.9142 28.8541 78.6363 28.7846 78.3352 28.831C77.5942 28.9467 77.3163 29.5488 76.969 30.0814C77.4784 30.5678 77.9416 31.0309 78.4047 31.494C78.8679 31.9572 79.331 32.4203 79.7942 32.8603C79.771 32.8835 79.7478 32.9066 79.7478 32.9298C79.6784 32.8835 79.6089 32.814 79.5394 32.7677C78.6826 32.073 77.8258 31.3783 76.969 30.6835C76.6216 30.4057 76.1585 30.3825 75.8342 30.7067C75.6258 30.892 75.4406 31.1235 75.2785 31.3551C75.0006 31.7719 75.0932 32.2351 75.4869 32.5593C75.5795 32.6519 75.6953 32.7214 75.8111 32.8372C75.649 33.0224 75.51 33.2077 75.3479 33.393C75.4174 33.4624 75.4637 33.5087 75.5332 33.5319C76.3206 34.1108 77.0847 34.7129 77.8721 35.2919C77.9879 35.3845 78.0805 35.5003 77.9647 35.6161C77.8953 35.6624 77.7332 35.6855 77.6637 35.6392C77.27 35.3845 76.8995 35.1066 76.5058 34.8519C76.0195 34.5045 75.5332 34.1803 75.0237 33.8329C74.9311 33.9487 74.8385 34.0414 74.7458 34.1571C74.8385 34.2266 74.908 34.2729 74.9774 34.3192C75.7648 34.8055 76.529 35.3613 77.2932 35.9403Z" fill="#ED2C37"/>
<path d="M77.0153 36.1255C76.228 35.5929 75.4638 35.0603 74.6996 34.5276C74.3754 34.2961 74.3291 34.2961 74.1438 34.6897C74.769 35.176 75.4174 35.6392 76.0427 36.1255H77.0153Z" fill="#ED2C37"/>
<path d="M68.6555 23.2963C68.285 22.6248 68.5166 21.7679 69.1882 21.3974C69.8597 21.0269 70.7165 21.2585 71.0871 21.93C71.4576 22.6016 71.226 23.4584 70.5544 23.8289C69.906 24.2226 69.0492 23.991 68.6555 23.2963Z" fill="#ED2C37"/>
<path d="M76.4826 23.9216C76.5984 23.1342 77.3394 22.6016 78.1036 22.7174C78.8909 22.8332 79.4236 23.5742 79.3078 24.3384C79.192 25.1258 78.4509 25.6584 77.6868 25.5426C76.9226 25.4268 76.3668 24.6858 76.4826 23.9216Z" fill="#ED2C37"/>
<path d="M61.5461 32.6519C61.6619 31.8645 62.4029 31.3319 63.1671 31.4477C63.9544 31.5635 64.4871 32.3045 64.3713 33.0687C64.2555 33.856 63.5145 34.3887 62.7503 34.2729C61.9629 34.1571 61.4303 33.4392 61.5461 32.6519Z" fill="#ED2C37"/>
<path d="M84.5413 32.3046C85.4676 32.2119 86.3013 32.9066 86.3939 33.8329C86.4865 34.7592 85.7918 35.5929 84.8655 35.6855C83.9392 35.7782 83.1056 35.0834 83.0129 34.1571C82.9203 33.2077 83.5919 32.3972 84.5413 32.3046Z" fill="#ED2C37"/>
<path d="M18.5428 76.1182V82.0697H17.4312V79.476H14.6523V82.0697H13.5408V76.1182H14.6523V78.6655H17.4312V76.1182H18.5428Z" fill="white"/>
<path d="M21.5764 77.7623C21.8774 77.7623 22.1785 77.8086 22.4332 77.9244C22.6879 78.017 22.9195 78.1791 23.0816 78.3644C23.2669 78.5497 23.4058 78.7812 23.4984 79.036C23.5911 79.2907 23.6374 79.6149 23.6374 79.9391C23.6374 80.2633 23.5911 80.5643 23.4984 80.8422C23.4058 81.1201 23.2669 81.3285 23.0816 81.537C22.8964 81.7222 22.6879 81.8612 22.4332 81.9769C22.1785 82.0696 21.9006 82.139 21.5764 82.139C21.2522 82.139 20.9743 82.0927 20.7196 81.9769C20.4648 81.8843 20.2333 81.7222 20.0712 81.537C19.8859 81.3517 19.747 81.1201 19.6543 80.8422C19.5617 80.5643 19.5154 80.2633 19.5154 79.9391C19.5154 79.6149 19.5617 79.3138 19.6543 79.036C19.747 78.7581 19.8859 78.5497 20.0712 78.3644C20.2564 78.1791 20.4648 78.0402 20.7196 77.9244C20.9743 77.8318 21.2522 77.7623 21.5764 77.7623ZM21.5764 81.3285C21.9237 81.3285 22.1785 81.2128 22.3637 80.9812C22.5258 80.7496 22.6185 80.4022 22.6185 79.9391C22.6185 79.4759 22.5258 79.1286 22.3637 78.897C22.2016 78.6654 21.9469 78.5497 21.5764 78.5497C21.229 78.5497 20.9511 78.6654 20.789 78.9202C20.6269 79.1517 20.5343 79.4991 20.5343 79.9622C20.5343 80.4254 20.6269 80.7496 20.789 81.0043C20.9511 81.2127 21.2059 81.3285 21.5764 81.3285Z" fill="white"/>
<path d="M28.0604 77.8318V82.0464H27.4352C27.2962 82.0464 27.2268 81.977 27.1805 81.8612L27.111 81.5138C26.9489 81.6991 26.7405 81.838 26.5321 81.9307C26.3236 82.0464 26.0689 82.0928 25.791 82.0928C25.5594 82.0928 25.351 82.0465 25.1889 81.977C25.0268 81.9075 24.8647 81.7917 24.7489 81.6528C24.6331 81.5138 24.5405 81.3517 24.471 81.1433C24.4016 80.9581 24.3784 80.7265 24.3784 80.4949V77.8087H25.3973V80.4949C25.3973 80.7496 25.4668 80.9581 25.5826 81.097C25.6984 81.2359 25.8836 81.3054 26.1152 81.3054C26.3005 81.3054 26.4626 81.2591 26.6015 81.1896C26.7636 81.1202 26.9026 81.0044 27.0415 80.8654V77.8087H28.0604V77.8318Z" fill="white"/>
<path d="M31.6267 78.6654C31.6035 78.7118 31.5804 78.7349 31.534 78.7581C31.4877 78.7812 31.4646 78.7812 31.4183 78.7812C31.3719 78.7812 31.3256 78.7581 31.2562 78.7349C31.2098 78.7118 31.1404 78.6654 31.0709 78.6423C31.0014 78.6191 30.9088 78.5728 30.8162 78.5497C30.7235 78.5265 30.6078 78.5033 30.492 78.5033C30.2835 78.5033 30.1446 78.5497 30.0288 78.6191C29.913 78.7118 29.8667 78.8044 29.8667 78.9433C29.8667 79.036 29.8899 79.1054 29.9593 79.1749C30.0288 79.2444 30.0983 79.2907 30.1909 79.337C30.2835 79.3833 30.3993 79.4296 30.5151 79.4528C30.6309 79.4991 30.7699 79.5223 30.8856 79.5686C31.0014 79.6149 31.1404 79.6612 31.2562 79.7075C31.3719 79.7538 31.4877 79.8233 31.5804 79.9159C31.673 80.0086 31.7656 80.1012 31.8119 80.217C31.8814 80.3328 31.9046 80.4717 31.9046 80.657C31.9046 80.8654 31.8582 81.0507 31.7888 81.2128C31.7193 81.3749 31.6035 81.537 31.4646 81.6527C31.3256 81.7685 31.1404 81.8843 30.932 81.9538C30.7235 82.0233 30.492 82.0696 30.2141 82.0696C30.0751 82.0696 29.9362 82.0464 29.7972 82.0233C29.6583 82.0001 29.5194 81.9538 29.4036 81.9075C29.2878 81.8612 29.1488 81.8148 29.0562 81.7454C28.9404 81.6759 28.8478 81.6064 28.7783 81.537L29.0099 81.1433C29.0331 81.097 29.0794 81.0507 29.1257 81.0275C29.172 81.0043 29.2183 80.9812 29.2878 80.9812C29.3573 80.9812 29.4036 81.0043 29.473 81.0275C29.5194 81.0738 29.5888 81.097 29.6583 81.1433C29.7278 81.1896 29.8204 81.2128 29.913 81.2591C30.0057 81.3054 30.1446 81.3054 30.2835 81.3054C30.3993 81.3054 30.5151 81.2822 30.5846 81.2591C30.6772 81.2359 30.7467 81.1896 30.793 81.1433C30.8393 81.097 30.8856 81.0507 30.9088 80.9812C30.932 80.9117 30.9551 80.8654 30.9551 80.7959C30.9551 80.7033 30.932 80.6107 30.8625 80.5643C30.793 80.4949 30.7235 80.4486 30.6309 80.4022C30.5383 80.3559 30.4225 80.3096 30.3067 80.2865C30.1909 80.2401 30.052 80.217 29.9362 80.1707C29.7972 80.1244 29.6815 80.078 29.5425 80.0086C29.4267 79.9391 29.3109 79.8696 29.2183 79.777C29.1257 79.6844 29.033 79.5686 28.9867 79.4528C28.9173 79.3139 28.8941 79.1517 28.8941 78.9665C28.8941 78.8044 28.9173 78.6191 28.9867 78.4802C29.0562 78.3181 29.1488 78.1791 29.2878 78.0634C29.4267 77.9476 29.5888 77.8549 29.7741 77.7855C29.9593 77.716 30.1909 77.6697 30.4688 77.6697C30.7699 77.6697 31.0246 77.716 31.2562 77.8086C31.4877 77.9013 31.6961 78.0402 31.8582 78.1791L31.6267 78.6654Z" fill="white"/>
<path d="M33.4561 80.0781C33.4793 80.2865 33.5025 80.4718 33.5719 80.6339C33.6414 80.796 33.7109 80.9118 33.8035 81.0276C33.8961 81.1433 34.0119 81.2128 34.1509 81.2591C34.2898 81.3054 34.4288 81.3286 34.5909 81.3286C34.753 81.3286 34.8919 81.3054 35.0077 81.2823C35.1235 81.236 35.2393 81.2128 35.3087 81.1665C35.4014 81.1202 35.4708 81.0739 35.5403 81.0507C35.6098 81.0044 35.6793 81.0044 35.7256 81.0044C35.8182 81.0044 35.8645 81.0276 35.9108 81.097L36.2119 81.4675C36.0961 81.6065 35.9803 81.6991 35.8414 81.7917C35.7024 81.8844 35.5635 81.9538 35.4014 82.0002C35.2393 82.0465 35.1003 82.0928 34.9382 82.116C34.7761 82.1391 34.6372 82.1391 34.4751 82.1391C34.174 82.1391 33.9193 82.0928 33.6646 82.0002C33.4098 81.9075 33.2014 81.7686 33.0162 81.5602C32.8309 81.3749 32.692 81.1433 32.5762 80.8423C32.4604 80.5644 32.4141 80.2402 32.4141 79.8697C32.4141 79.5918 32.4604 79.3139 32.553 79.0592C32.6456 78.8044 32.7846 78.596 32.9467 78.3876C33.1088 78.1792 33.3404 78.0403 33.5951 77.9476C33.8498 77.8318 34.1277 77.7855 34.4519 77.7855C34.7066 77.7855 34.9614 77.8318 35.1929 77.9013C35.4245 77.9939 35.6098 78.1097 35.7719 78.2718C35.934 78.4339 36.0498 78.6423 36.1424 78.8739C36.235 79.1055 36.2813 79.3834 36.2813 79.6844C36.2813 79.8465 36.2582 79.9392 36.235 79.9855C36.2119 80.0318 36.1424 80.0549 36.0498 80.0549H33.4561V80.0781ZM35.3782 79.4529C35.3782 79.3139 35.355 79.1981 35.3319 79.0823C35.2856 78.9665 35.2393 78.8739 35.1698 78.7813C35.1003 78.6887 35.0077 78.6192 34.8919 78.5729C34.7761 78.5266 34.6372 78.5034 34.4982 78.5034C34.1972 78.5034 33.9656 78.596 33.8035 78.7581C33.6414 78.9202 33.5256 79.1518 33.4793 79.476H35.3782V79.4529Z" fill="white"/>
<path d="M40.9128 77.7623C41.2139 77.7623 41.5149 77.8086 41.7696 77.9244C42.0244 78.017 42.2559 78.1791 42.418 78.3644C42.6033 78.5497 42.7422 78.7812 42.8349 79.036C42.9275 79.2907 42.9738 79.6149 42.9738 79.9391C42.9738 80.2633 42.9275 80.5643 42.8349 80.8422C42.7422 81.1201 42.6033 81.3285 42.418 81.537C42.2328 81.7222 42.0244 81.8612 41.7696 81.9769C41.5149 82.0696 41.237 82.139 40.9128 82.139C40.5886 82.139 40.3107 82.0927 40.056 81.9769C39.8013 81.8843 39.5697 81.7222 39.4076 81.537C39.2223 81.3517 39.0834 81.1201 38.9907 80.8422C38.8981 80.5643 38.8518 80.2633 38.8518 79.9391C38.8518 79.6149 38.8981 79.3138 38.9907 79.036C39.0834 78.7581 39.2223 78.5497 39.4076 78.3644C39.5928 78.1791 39.8013 78.0402 40.056 77.9244C40.3107 77.8318 40.6118 77.7623 40.9128 77.7623ZM40.9128 81.3285C41.2602 81.3285 41.5149 81.2128 41.7002 80.9812C41.8623 80.7496 41.9549 80.4022 41.9549 79.9391C41.9549 79.4759 41.8623 79.1286 41.7002 78.897C41.5381 78.6654 41.2833 78.5497 40.9128 78.5497C40.5654 78.5497 40.2876 78.6654 40.1255 78.9202C39.9634 79.1517 39.8707 79.4991 39.8707 79.9622C39.8707 80.4254 39.9634 80.7496 40.1255 81.0043C40.3107 81.2127 40.5654 81.3285 40.9128 81.3285Z" fill="white"/>
<path d="M43.9233 82.0465V78.596L43.5528 78.5497C43.4834 78.5266 43.4139 78.5034 43.3676 78.4571C43.3213 78.4108 43.2981 78.3645 43.2981 78.295V77.8782H43.9233V77.5771C43.9233 77.3455 43.9697 77.114 44.0391 76.9287C44.1086 76.7435 44.2244 76.5814 44.3402 76.4424C44.4791 76.3035 44.6412 76.2108 44.8265 76.1414C45.0117 76.0719 45.2433 76.0256 45.4749 76.0256C45.6601 76.0256 45.8454 76.0487 46.0075 76.0951L45.9844 76.6045C45.9844 76.6508 45.9612 76.674 45.9612 76.6971C45.9612 76.7203 45.9149 76.7435 45.8917 76.7435C45.8686 76.7666 45.8222 76.7666 45.7759 76.7666C45.7296 76.7666 45.6833 76.7666 45.637 76.7666C45.5212 76.7666 45.4054 76.7898 45.3128 76.8129C45.2202 76.8361 45.1275 76.8824 45.0812 76.9519C45.0117 77.0213 44.9654 77.0908 44.9423 77.2066C44.9191 77.3224 44.896 77.4382 44.896 77.6003V77.8782H45.9844V78.596H44.9191V82.0465H43.9233Z" fill="white"/>
<path d="M48.4853 78.4339C48.9716 77.9939 49.5505 77.7623 50.2453 77.7623C50.5 77.7623 50.7084 77.8086 50.9168 77.8781C51.1021 77.9476 51.2642 78.0633 51.4031 78.2254C51.5421 78.3644 51.6347 78.5497 51.7042 78.7349C51.7737 78.9433 51.82 79.1517 51.82 79.3833V82.0464H51.3568C51.2642 82.0464 51.1947 82.0233 51.1252 82.0001C51.0558 81.9769 51.0326 81.9075 51.0095 81.8148L50.9168 81.5138C50.801 81.6064 50.7084 81.6991 50.6158 81.7685C50.5232 81.838 50.4074 81.9075 50.2916 81.9538C50.1758 82.0001 50.06 82.0464 49.9442 82.0696C49.8284 82.0927 49.6895 82.1159 49.5274 82.1159C49.3421 82.1159 49.18 82.0927 49.0411 82.0464C48.9021 82.0001 48.7632 81.9306 48.6474 81.838C48.5316 81.7454 48.4621 81.6296 48.3927 81.4906C48.3232 81.3517 48.3 81.1896 48.3 81.0043C48.3 80.8885 48.3232 80.7959 48.3464 80.6801C48.3927 80.5643 48.439 80.4717 48.5316 80.3791C48.6011 80.2865 48.7169 80.1938 48.8558 80.1012C48.9948 80.0086 49.1337 79.9391 49.319 79.8696C49.5042 79.8001 49.7358 79.7538 49.9674 79.7075C50.2221 79.6612 50.5 79.638 50.8242 79.638V79.3833C50.8242 79.1054 50.7547 78.897 50.6389 78.7581C50.5232 78.6191 50.3379 78.5497 50.1063 78.5497C49.9442 78.5497 49.8053 78.5728 49.6895 78.596C49.5737 78.6423 49.4811 78.6886 49.4116 78.7349C49.319 78.7812 49.2495 78.8275 49.18 78.8739C49.1106 78.9202 49.0411 78.9202 48.9485 78.9202C48.879 78.9202 48.8095 78.897 48.7632 78.8739C48.7169 78.8275 48.6706 78.8044 48.6474 78.7349L48.4853 78.4339ZM50.801 80.2633C50.5 80.2865 50.2684 80.3096 50.06 80.3328C49.8516 80.3791 49.6895 80.4254 49.5737 80.4717C49.4579 80.518 49.3653 80.5875 49.319 80.6801C49.2727 80.7728 49.2495 80.8422 49.2495 80.9349C49.2495 81.1201 49.2958 81.2359 49.4116 81.3054C49.5274 81.3749 49.6432 81.4212 49.8284 81.4212C50.0368 81.4212 50.2221 81.3749 50.3611 81.3054C50.5232 81.2359 50.6621 81.1201 50.801 80.958V80.2633Z" fill="white"/>
<path d="M56.382 77.8318V82.0464H55.7567C55.6178 82.0464 55.5483 81.977 55.502 81.8612L55.4325 81.5138C55.2704 81.6991 55.062 81.838 54.8536 81.9307C54.6452 82.0464 54.3904 82.0928 54.1125 82.0928C53.881 82.0928 53.6726 82.0465 53.5105 81.977C53.3484 81.9075 53.1863 81.7917 53.0705 81.6528C52.9547 81.5138 52.8621 81.3517 52.7926 81.1433C52.7231 80.9581 52.7 80.7265 52.7 80.4949V77.8087H53.7189V80.4949C53.7189 80.7496 53.7883 80.9581 53.9041 81.097C54.0199 81.2359 54.2052 81.3054 54.4368 81.3054C54.622 81.3054 54.7841 81.2591 54.9231 81.1896C55.0852 81.1202 55.2241 81.0044 55.363 80.8654V77.8087H56.382V77.8318Z" fill="white"/>
<path d="M58.7902 82.1159C58.4197 82.1159 58.1418 82.0233 57.9566 81.8149C57.7713 81.6065 57.6555 81.3286 57.6555 80.9581V78.596H57.2155C57.1692 78.596 57.1229 78.5729 57.0766 78.5497C57.0303 78.5034 57.0303 78.4571 57.0303 78.3876V77.9939L57.7018 77.8781L57.9103 76.7203C57.9334 76.6739 57.9566 76.6276 57.9797 76.6045C58.026 76.5813 58.0724 76.5582 58.1187 76.5582H58.6513V77.8781H59.786V78.596H58.6513V80.8886C58.6513 81.0275 58.6744 81.1202 58.7439 81.1896C58.8134 81.2591 58.906 81.3054 58.9986 81.3054C59.0681 81.3054 59.1144 81.3054 59.1607 81.2823C59.2071 81.2591 59.2302 81.2591 59.2765 81.2359C59.2997 81.2128 59.346 81.2128 59.3692 81.1896C59.3923 81.1665 59.4155 81.1665 59.4386 81.1665C59.4618 81.1665 59.485 81.1665 59.5081 81.1896C59.5313 81.2128 59.5544 81.2359 59.5776 81.2591L59.8786 81.7454C59.7397 81.8612 59.5544 81.9538 59.3692 82.0233C59.1839 82.0928 58.9986 82.1159 58.7902 82.1159Z" fill="white"/>
<path d="M62.2407 77.7623C62.5417 77.7623 62.8428 77.8086 63.0975 77.9244C63.3522 78.017 63.5838 78.1791 63.7459 78.3644C63.9312 78.5497 64.0701 78.7812 64.1628 79.036C64.2554 79.2907 64.3017 79.6149 64.3017 79.9391C64.3017 80.2633 64.2554 80.5643 64.1628 80.8422C64.0701 81.1201 63.9312 81.3285 63.7459 81.537C63.5607 81.7222 63.3522 81.8612 63.0975 81.9769C62.8428 82.0696 62.5649 82.139 62.2407 82.139C61.9165 82.139 61.6386 82.0927 61.3839 81.9769C61.1291 81.8843 60.8976 81.7222 60.7355 81.537C60.5502 81.3517 60.4113 81.1201 60.3186 80.8422C60.226 80.5643 60.1797 80.2633 60.1797 79.9391C60.1797 79.6149 60.226 79.3138 60.3186 79.036C60.4113 78.7581 60.5502 78.5497 60.7355 78.3644C60.9207 78.1791 61.1291 78.0402 61.3839 77.9244C61.6386 77.8318 61.9165 77.7623 62.2407 77.7623ZM62.2407 81.3285C62.5881 81.3285 62.8428 81.2128 63.028 80.9812C63.1901 80.7496 63.2828 80.4022 63.2828 79.9391C63.2828 79.4759 63.1901 79.1286 63.028 78.897C62.8659 78.6654 62.6112 78.5497 62.2407 78.5497C61.8933 78.5497 61.6154 78.6654 61.4533 78.9202C61.2912 79.1517 61.1986 79.4991 61.1986 79.9622C61.1986 80.4254 61.2912 80.7496 61.4533 81.0043C61.6154 81.2127 61.8702 81.3285 62.2407 81.3285Z" fill="white"/>
<path d="M68.0532 78.4107C68.2153 78.2254 68.4237 78.0633 68.6321 77.9476C68.8405 77.8318 69.1184 77.7623 69.3963 77.7623C69.6279 77.7623 69.8363 77.8086 70.0215 77.9012C70.2068 77.9939 70.3689 78.1328 70.5079 78.3181C70.6468 78.5033 70.7626 78.7349 70.8321 78.9896C70.9015 79.2675 70.9478 79.5686 70.9478 79.9159C70.9478 80.2401 70.9015 80.518 70.8321 80.7959C70.7394 81.0738 70.6236 81.3054 70.4615 81.4906C70.2994 81.6991 70.1142 81.838 69.8826 81.9538C69.651 82.0696 69.4195 82.1159 69.1416 82.1159C68.91 82.1159 68.7016 82.0696 68.5395 82.0001C68.3774 81.9306 68.2153 81.838 68.0995 81.699V83.4359H67.0806V77.8549H67.7058C67.8448 77.8549 67.9142 77.9244 67.9605 78.0402L68.0532 78.4107ZM68.0995 80.958C68.2153 81.097 68.3311 81.1896 68.47 81.2591C68.609 81.3054 68.7479 81.3517 68.91 81.3517C69.0721 81.3517 69.211 81.3285 69.3268 81.2591C69.4426 81.2127 69.5584 81.1201 69.651 81.0043C69.7437 80.8885 69.8131 80.7264 69.8594 80.5643C69.9058 80.3791 69.9289 80.1707 69.9289 79.9391C69.9289 79.6844 69.9058 79.4759 69.8594 79.3138C69.8131 79.1517 69.7668 79.0128 69.6973 78.897C69.6279 78.7812 69.5352 78.7118 69.4195 78.6654C69.3037 78.6191 69.1879 78.596 69.0489 78.596C68.8405 78.596 68.6553 78.6423 68.5163 78.7349C68.3774 78.8275 68.2384 78.9433 68.0995 79.1054V80.958Z" fill="white"/>
<path d="M71.6657 78.4339C72.152 77.9939 72.731 77.7623 73.4257 77.7623C73.6804 77.7623 73.8888 77.8086 74.0972 77.8781C74.2825 77.9476 74.4446 78.0633 74.5836 78.2254C74.7225 78.3875 74.8151 78.5497 74.8846 78.7349C74.9541 78.9433 75.0004 79.1517 75.0004 79.3833V82.0464H74.5372C74.4446 82.0464 74.3751 82.0233 74.3057 82.0001C74.2362 81.9769 74.213 81.9075 74.1899 81.8148L74.0972 81.5138C73.9815 81.6064 73.8888 81.6991 73.7962 81.7685C73.7036 81.838 73.5878 81.9075 73.472 81.9538C73.3562 82.0001 73.2404 82.0464 73.1246 82.0696C73.0088 82.0927 72.8699 82.1159 72.7078 82.1159C72.5225 82.1159 72.3604 82.0927 72.2215 82.0464C72.0826 82.0001 71.9436 81.9306 71.8278 81.838C71.712 81.7454 71.6426 81.6296 71.5731 81.4906C71.5036 81.3517 71.4805 81.1896 71.4805 81.0043C71.4805 80.8885 71.5036 80.7959 71.5268 80.6801C71.5731 80.5643 71.6194 80.4717 71.712 80.3791C71.7815 80.2865 71.8973 80.1938 72.0362 80.1012C72.1752 80.0086 72.3141 79.9391 72.5225 79.8696C72.7078 79.8001 72.9394 79.7538 73.171 79.7075C73.4257 79.6612 73.7036 79.638 74.0278 79.638V79.3833C74.0278 79.1054 73.9583 78.897 73.8425 78.7581C73.7267 78.6191 73.5415 78.5497 73.3099 78.5497C73.1478 78.5497 73.0088 78.5728 72.8931 78.596C72.7773 78.6423 72.6847 78.6886 72.6152 78.7349C72.5225 78.7812 72.4531 78.8275 72.3836 78.8739C72.3141 78.9202 72.2447 78.9202 72.152 78.9202C72.0826 78.9202 72.0131 78.897 71.9668 78.8739C71.9205 78.8275 71.8741 78.8044 71.851 78.7349L71.6657 78.4339ZM73.9815 80.2633C73.6804 80.2865 73.4488 80.3096 73.2404 80.3328C73.032 80.3791 72.8699 80.4254 72.7541 80.4717C72.6383 80.518 72.5457 80.5875 72.4994 80.6801C72.4531 80.7728 72.4299 80.8422 72.4299 80.9349C72.4299 81.1201 72.4762 81.2359 72.592 81.3054C72.7078 81.3749 72.8236 81.4212 73.0088 81.4212C73.2173 81.4212 73.4025 81.3749 73.5415 81.3054C73.7036 81.2359 73.8425 81.1201 73.9815 80.958V80.2633Z" fill="white"/>
<path d="M76.8994 78.5728C77.0383 78.3181 77.1773 78.1328 77.3625 77.9707C77.5478 77.8318 77.7562 77.7623 78.0109 77.7623C78.1962 77.7623 78.3583 77.8086 78.4741 77.9012L78.4046 78.6654C78.3814 78.7118 78.3814 78.7581 78.3351 78.7812C78.312 78.8044 78.2656 78.8044 78.2193 78.8044C78.173 78.8044 78.1267 78.8044 78.0341 78.7812C77.9646 78.7581 77.872 78.7581 77.8025 78.7581C77.6867 78.7581 77.5941 78.7812 77.5015 78.8044C77.4088 78.8275 77.3394 78.8739 77.2699 78.9433C77.2004 79.0128 77.1309 79.0823 77.0846 79.1749C77.0383 79.2675 76.992 79.3602 76.9457 79.4759V82.0696H75.9268V77.8549H76.5289C76.6215 77.8549 76.7141 77.8781 76.7373 77.9012C76.7836 77.9476 76.8067 77.9939 76.8299 78.1097L76.8994 78.5728Z" fill="white"/>
<path d="M80.4887 82.1159C80.1182 82.1159 79.8403 82.0233 79.6551 81.8149C79.4698 81.6065 79.354 81.3286 79.354 80.9581V78.596H78.914C78.8677 78.596 78.8214 78.5729 78.7751 78.5497C78.7288 78.5034 78.7288 78.4571 78.7288 78.3876V77.9939L79.4003 77.8781L79.6087 76.7203C79.6319 76.6739 79.6551 76.6276 79.6782 76.6045C79.7014 76.5813 79.7708 76.5582 79.8172 76.5582H80.3498V77.8781H81.4845V78.596H80.3498V80.8886C80.3498 81.0275 80.3729 81.1202 80.4424 81.1896C80.5119 81.2591 80.6045 81.3054 80.6971 81.3054C80.7666 81.3054 80.8129 81.3054 80.8592 81.2823C80.9056 81.2591 80.9287 81.2591 80.975 81.2359C80.9982 81.2128 81.0445 81.2128 81.0677 81.1896C81.0908 81.1665 81.114 81.1665 81.1371 81.1665C81.1603 81.1665 81.1834 81.1665 81.2066 81.1896C81.2298 81.2128 81.2529 81.2359 81.2761 81.2591L81.5771 81.7454C81.4382 81.8612 81.2529 81.9538 81.0677 82.0233C80.8824 82.0928 80.6971 82.1159 80.4887 82.1159Z" fill="white"/>
<path d="M84.7033 78.6654C84.6802 78.7118 84.657 78.7349 84.6107 78.7581C84.5875 78.7812 84.5412 78.7812 84.4949 78.7812C84.4486 78.7812 84.4023 78.7581 84.3328 78.7349C84.2865 78.7118 84.217 78.6654 84.1476 78.6423C84.0781 78.6191 83.9855 78.5728 83.8928 78.5497C83.8002 78.5265 83.6844 78.5033 83.5686 78.5033C83.3602 78.5033 83.2213 78.5497 83.1055 78.6191C82.9897 78.7118 82.9434 78.8044 82.9434 78.9433C82.9434 79.036 82.9665 79.1054 83.036 79.1749C83.1055 79.2444 83.175 79.2907 83.2676 79.337C83.3602 79.3833 83.476 79.4296 83.5918 79.4528C83.7076 79.4991 83.8465 79.5223 83.9623 79.5686C84.0781 79.6149 84.217 79.6612 84.3328 79.7075C84.4486 79.7538 84.5644 79.8233 84.657 79.9159C84.7497 80.0086 84.8423 80.1012 84.8886 80.217C84.9349 80.3328 84.9812 80.4717 84.9812 80.657C84.9812 80.8654 84.9349 81.0507 84.8654 81.2128C84.796 81.3749 84.6802 81.537 84.5412 81.6527C84.4023 81.7685 84.217 81.8843 84.0086 81.9538C83.8002 82.0233 83.5686 82.0696 83.2907 82.0696C83.1518 82.0696 83.0128 82.0464 82.8739 82.0233C82.735 82.0001 82.596 81.9538 82.4802 81.9075C82.3644 81.8612 82.2255 81.8148 82.1329 81.7454C82.0402 81.6759 81.9245 81.6064 81.855 81.537L82.0866 81.1433C82.1097 81.097 82.156 81.0507 82.2023 81.0275C82.2487 81.0043 82.295 80.9812 82.3644 80.9812C82.4339 80.9812 82.4802 81.0043 82.5497 81.0275C82.596 81.0738 82.6655 81.097 82.735 81.1433C82.8044 81.1896 82.8971 81.2128 82.9897 81.2591C83.0823 81.3054 83.2213 81.3054 83.3602 81.3054C83.476 81.3054 83.5918 81.2822 83.6613 81.2591C83.7539 81.2359 83.8234 81.1896 83.8697 81.1433C83.916 81.097 83.9623 81.0507 83.9855 80.9812C84.0086 80.9117 84.0318 80.8654 84.0318 80.7959C84.0318 80.7033 84.0086 80.6107 83.9391 80.5643C83.8697 80.4949 83.8002 80.4486 83.7076 80.4022C83.6149 80.3559 83.4992 80.3096 83.3834 80.2865C83.2676 80.2401 83.1286 80.217 82.9897 80.1707C82.8507 80.1244 82.735 80.078 82.596 80.0086C82.4802 79.9391 82.3644 79.8696 82.2718 79.777C82.1792 79.6844 82.0866 79.5686 82.0402 79.4528C81.9708 79.3139 81.9476 79.1517 81.9476 78.9665C81.9476 78.8044 81.9708 78.6191 82.0402 78.4802C82.1097 78.3181 82.2023 78.1791 82.3413 78.0634C82.4802 77.9476 82.6423 77.8549 82.8276 77.7855C83.0129 77.716 83.2444 77.6697 83.5223 77.6697C83.8234 77.6697 84.0781 77.716 84.3097 77.8086C84.5412 77.9013 84.7497 78.0402 84.9118 78.1791L84.7033 78.6654Z" fill="white"/>
</svg>
