<svg width="17" height="17" viewBox="0 0 17 17" fill="none" xmlns="http://www.w3.org/2000/svg">
<path fill-rule="evenodd" clip-rule="evenodd" d="M5.19101 0.261719H11.3417C14.1721 0.261719 16.4673 2.55696 16.4673 5.3873V11.538C16.4673 14.3684 14.1721 16.6636 11.3417 16.6636H5.19101C2.36067 16.6636 0.0654297 14.3684 0.0654297 11.538V5.3873C0.0654297 2.55696 2.36067 0.261719 5.19101 0.261719ZM11.3417 15.1259C13.3202 15.1259 14.9296 13.5165 14.9296 11.538V5.38734C14.9296 3.40886 13.3202 1.79943 11.3417 1.79943H5.19103C3.21256 1.79943 1.60312 3.40886 1.60312 5.38734V11.538C1.60312 13.5165 3.21256 15.1259 5.19103 15.1259H11.3417Z" fill="white"/>
<path fill-rule="evenodd" clip-rule="evenodd" d="M4.16602 8.46277C4.16602 6.19829 6.002 4.3623 8.26648 4.3623C10.531 4.3623 12.3669 6.19829 12.3669 8.46277C12.3669 10.7273 10.531 12.5632 8.26648 12.5632C6.002 12.5632 4.16602 10.7273 4.16602 8.46277ZM5.7037 8.46282C5.7037 9.87543 6.85388 11.0256 8.26649 11.0256C9.6791 11.0256 10.8293 9.87543 10.8293 8.46282C10.8293 7.04918 9.6791 5.90002 8.26649 5.90002C6.85388 5.90002 5.7037 7.04918 5.7037 8.46282Z" fill="white"/>
<path d="M12.6743 4.60108C12.9761 4.60108 13.2207 4.35645 13.2207 4.05469C13.2207 3.75293 12.9761 3.5083 12.6743 3.5083C12.3726 3.5083 12.1279 3.75293 12.1279 4.05469C12.1279 4.35645 12.3726 4.60108 12.6743 4.60108Z" fill="white"/>
</svg>
