<svg width="18" height="18" viewBox="0 0 18 18" fill="none" xmlns="http://www.w3.org/2000/svg">
<path d="M10.069 5.76815C10.069 6.29403 10.069 6.8166 10.069 7.25993C10.285 7.07345 10.5304 6.86413 10.7725 6.65113C11.434 6.06997 12.1659 5.61853 13.0592 5.52419C14.8886 5.33109 16.7942 6.11751 17.5176 8.37544C17.7501 9.10069 17.8371 9.84732 17.8386 10.6043C17.843 12.7258 17.8404 14.8478 17.84 16.9694C17.84 17.0228 17.8338 17.0766 17.8301 17.1396C16.572 17.1396 15.3245 17.1396 14.0546 17.1396C14.0546 17.0615 14.0546 16.99 14.0546 16.9185C14.0546 14.993 14.0631 13.0675 14.048 11.1423C14.0446 10.717 14.0052 10.2803 13.8998 9.8698C13.5431 8.48121 11.9279 8.00176 10.8411 8.94775C10.3513 9.37413 10.0749 9.9096 10.0753 10.5733C10.076 11.5175 10.0709 12.462 10.0701 13.4061C10.069 14.5773 10.0698 15.7484 10.0698 16.92C10.0698 16.9918 10.0698 17.0633 10.0698 17.1422C8.80132 17.1422 7.55866 17.1422 6.30127 17.1422C6.30127 13.3508 6.30127 9.5654 6.30127 5.76741C7.54908 5.76815 8.79616 5.76815 10.069 5.76815Z" fill="white"/>
<path d="M4.1796 17.1404C2.92147 17.1404 1.67439 17.1404 0.41626 17.1404C0.41626 13.3461 0.41626 9.5603 0.41626 5.76416C1.67329 5.76416 2.92036 5.76416 4.1796 5.76416C4.1796 9.55477 4.1796 13.3358 4.1796 17.1404Z" fill="white"/>
<path d="M4.43426 2.24741C4.43278 3.23099 3.73812 4.02036 2.74606 4.16519C2.06503 4.26469 1.41828 4.18435 0.872865 3.73107C0.251169 3.21441 0.0654344 2.52859 0.239745 1.75948C0.413319 0.993695 0.934777 0.542257 1.67993 0.345098C2.11994 0.228645 2.56622 0.235647 3.00587 0.35689C3.87816 0.597535 4.43573 1.339 4.43426 2.24741Z" fill="white"/>
</svg>
