<svg width="19" height="16" viewBox="0 0 19 16" fill="none" xmlns="http://www.w3.org/2000/svg">
<path d="M18.9999 2.34381C18.2962 2.65253 17.5462 2.85716 16.7644 2.95651C17.5687 2.47628 18.1826 1.72164 18.4712 0.812047C17.7213 1.25916 16.8933 1.57497 16.0109 1.75121C15.2989 0.99302 14.284 0.523438 13.1769 0.523438C11.0289 0.523438 9.29958 2.26692 9.29958 4.40429C9.29958 4.71183 9.3256 5.00753 9.38947 5.28905C6.1639 5.13173 3.30974 3.58578 1.39238 1.23077C1.05764 1.81154 0.861287 2.47628 0.861287 3.1919C0.861287 4.53559 1.55324 5.72669 2.58467 6.41628C1.96132 6.40445 1.34979 6.22348 0.831716 5.93842C0.831716 5.95025 0.831716 5.96562 0.831716 5.981C0.831716 7.86643 2.17659 9.43249 3.94019 9.79325C3.62437 9.8796 3.28017 9.921 2.92295 9.921C2.67456 9.921 2.4238 9.9068 2.18842 9.85476C2.69112 11.3913 4.11761 12.5209 5.81378 12.5575C4.49375 13.5901 2.81768 14.2123 1.00323 14.2123C0.685046 14.2123 0.379876 14.1981 0.074707 14.1591C1.79335 15.2674 3.83018 15.9002 6.02669 15.9002C13.1662 15.9002 17.0696 9.98605 17.0696 4.85968C17.0696 4.68817 17.0637 4.52258 17.0554 4.35816C17.8254 3.8117 18.4724 3.12921 18.9999 2.34381Z" fill="white"/>
</svg>
