<svg width="136" height="93" viewBox="0 0 136 93" fill="none" xmlns="http://www.w3.org/2000/svg">
<path d="M114.368 92.6294H6.96422C4.81059 92.6294 2.7959 91.6568 1.47593 89.9432C0.155961 88.2295 -0.307186 86.0527 0.202276 83.9686L14.2819 27.673C15.4861 22.8563 19.7934 19.4985 24.7491 19.4985H46.7254C48.9254 13.8944 52.7 9.07768 57.6557 5.60408C62.8661 1.94522 69.0028 0 75.3711 0C81.7625 0 87.876 1.94522 93.0864 5.60408C98.0421 9.10084 101.817 13.8944 104.017 19.4985H128.564C130.856 19.4985 133.01 20.5406 134.422 22.3468C135.835 24.1531 136.344 26.492 135.765 28.7151L121.107 87.3264C120.366 90.4526 117.587 92.6294 114.368 92.6294ZM24.7491 20.8879C20.4186 20.8879 16.6672 23.8289 15.6251 28.0204L1.5454 84.3159C1.12857 86.0064 1.49909 87.7432 2.56433 89.1095C3.62957 90.4758 5.25058 91.2631 6.96422 91.2631H114.368C116.939 91.2631 119.185 89.5263 119.787 87.0253L134.445 28.4141C134.909 26.5846 134.492 24.6857 133.334 23.2037C132.176 21.7216 130.439 20.8648 128.564 20.8648H103.09L102.928 20.4248C98.6442 9.03137 87.575 1.36628 75.3711 1.36628C63.1903 1.36628 52.1211 9.03137 47.837 20.4248L47.6749 20.8648H24.7491V20.8879Z" fill="#ED2C37"/>
</svg>
